solid OpenSCAD_Model
  facet normal -0.980786 -0.195089 0
    outer loop
      vertex 0.102222 2.22354 0
      vertex 0.0256653 2.60842 27
      vertex 0.0256653 2.60842 0
    endloop
  endfacet
  facet normal -0.980786 -0.195089 0
    outer loop
      vertex 0.0256653 2.60842 27
      vertex 0.102222 2.22354 0
      vertex 0.102222 2.22354 27
    endloop
  endfacet
  facet normal -0.946929 -0.321442 0
    outer loop
      vertex 0.228361 1.85195 0
      vertex 0.102222 2.22354 27
      vertex 0.102222 2.22354 0
    endloop
  endfacet
  facet normal -0.946929 -0.321442 0
    outer loop
      vertex 0.102222 2.22354 27
      vertex 0.228361 1.85195 0
      vertex 0.228361 1.85195 27
    endloop
  endfacet
  facet normal -0.997859 -0.0654026 0
    outer loop
      vertex 0.0256653 2.60842 0
      vertex 0 3 27
      vertex 0 3 0
    endloop
  endfacet
  facet normal -0.997859 -0.0654026 0
    outer loop
      vertex 0 3 27
      vertex 0.0256653 2.60842 0
      vertex 0.0256653 2.60842 27
    endloop
  endfacet
  facet normal 0 -1 0
    outer loop
      vertex 3 0 0
      vertex 73 0 27
      vertex 3 0 27
    endloop
  endfacet
  facet normal 0 -1 -0
    outer loop
      vertex 73 0 27
      vertex 3 0 0
      vertex 73 0 0
    endloop
  endfacet
  facet normal 0 0 1
    outer loop
      vertex 74 36 27
      vertex 76 35 27
      vertex 75.9743 35.3916 27
    endloop
  endfacet
  facet normal 0 0 1
    outer loop
      vertex 76 35 27
      vertex 74 36 27
      vertex 76 3 27
    endloop
  endfacet
  facet normal 0 0 1
    outer loop
      vertex 74 36 27
      vertex 75.9743 35.3916 27
      vertex 75.8978 35.7765 27
    endloop
  endfacet
  facet normal 0 0 1
    outer loop
      vertex 74 2 27
      vertex 76 3 27
      vertex 74 36 27
    endloop
  endfacet
  facet normal -0 0 1
    outer loop
      vertex 74 36 27
      vertex 75.8978 35.7765 27
      vertex 75.7716 36.148 27
    endloop
  endfacet
  facet normal 0 0 1
    outer loop
      vertex 76 3 27
      vertex 74 2 27
      vertex 75.9743 2.60842 27
    endloop
  endfacet
  facet normal 0 0 1
    outer loop
      vertex 74 36 27
      vertex 75.7716 36.148 27
      vertex 75.5981 36.5 27
    endloop
  endfacet
  facet normal 0 0 1
    outer loop
      vertex 75.9743 2.60842 27
      vertex 74 2 27
      vertex 75.8978 2.22354 27
    endloop
  endfacet
  facet normal 0 0 1
    outer loop
      vertex 74 36 27
      vertex 75.5981 36.5 27
      vertex 75.3801 36.8263 27
    endloop
  endfacet
  facet normal 0 0 1
    outer loop
      vertex 75.8978 2.22354 27
      vertex 74 2 27
      vertex 75.7716 1.85195 27
    endloop
  endfacet
  facet normal 0 0 1
    outer loop
      vertex 74 36 27
      vertex 75.3801 36.8263 27
      vertex 75.1213 37.1213 27
    endloop
  endfacet
  facet normal 0 0 1
    outer loop
      vertex 75.7716 1.85195 27
      vertex 74 2 27
      vertex 75.5981 1.5 27
    endloop
  endfacet
  facet normal 0 0 1
    outer loop
      vertex 74 36 27
      vertex 75.1213 37.1213 27
      vertex 74.8263 37.3801 27
    endloop
  endfacet
  facet normal 0 0 1
    outer loop
      vertex 75.5981 1.5 27
      vertex 74 2 27
      vertex 75.3801 1.17372 27
    endloop
  endfacet
  facet normal 0 0 1
    outer loop
      vertex 74 36 27
      vertex 74.8263 37.3801 27
      vertex 74.5 37.5981 27
    endloop
  endfacet
  facet normal 0 0 1
    outer loop
      vertex 75.3801 1.17372 27
      vertex 74 2 27
      vertex 75.1213 0.878679 27
    endloop
  endfacet
  facet normal 0 0 1
    outer loop
      vertex 74 36 27
      vertex 74.5 37.5981 27
      vertex 74.148 37.7716 27
    endloop
  endfacet
  facet normal 0 0 1
    outer loop
      vertex 75.1213 0.878679 27
      vertex 74 2 27
      vertex 74.8263 0.61994 27
    endloop
  endfacet
  facet normal 0 0 1
    outer loop
      vertex 74.8263 0.61994 27
      vertex 74 2 27
      vertex 74.5 0.401923 27
    endloop
  endfacet
  facet normal 0 0 1
    outer loop
      vertex 73.7765 37.8978 27
      vertex 74 36 27
      vertex 74.148 37.7716 27
    endloop
  endfacet
  facet normal 0 0 1
    outer loop
      vertex 73.3916 37.9743 27
      vertex 74 36 27
      vertex 73.7765 37.8978 27
    endloop
  endfacet
  facet normal 0 0 1
    outer loop
      vertex 73 38 27
      vertex 74 36 27
      vertex 73.3916 37.9743 27
    endloop
  endfacet
  facet normal -0 0 1
    outer loop
      vertex 3 38 27
      vertex 74 36 27
      vertex 73 38 27
    endloop
  endfacet
  facet normal 0 0 1
    outer loop
      vertex 2 36 27
      vertex 3 38 27
      vertex 2.60842 37.9743 27
    endloop
  endfacet
  facet normal 0 0 1
    outer loop
      vertex 2 36 27
      vertex 2.60842 37.9743 27
      vertex 2.22354 37.8978 27
    endloop
  endfacet
  facet normal 0 0 1
    outer loop
      vertex 3 38 27
      vertex 2 36 27
      vertex 74 36 27
    endloop
  endfacet
  facet normal -0 0 1
    outer loop
      vertex 1.5 37.5981 27
      vertex 2 36 27
      vertex 1.85195 37.7716 27
    endloop
  endfacet
  facet normal -0 0 1
    outer loop
      vertex 1.85195 37.7716 27
      vertex 2 36 27
      vertex 2.22354 37.8978 27
    endloop
  endfacet
  facet normal 0 0 1
    outer loop
      vertex 74.5 0.401923 27
      vertex 74 2 27
      vertex 74.148 0.228361 27
    endloop
  endfacet
  facet normal 0 0 1
    outer loop
      vertex 74 2 27
      vertex 73.7765 0.102222 27
      vertex 74.148 0.228361 27
    endloop
  endfacet
  facet normal 0 0 1
    outer loop
      vertex 74 2 27
      vertex 73.3916 0.0256653 27
      vertex 73.7765 0.102222 27
    endloop
  endfacet
  facet normal 0 0 1
    outer loop
      vertex 74 2 27
      vertex 73 0 27
      vertex 73.3916 0.0256653 27
    endloop
  endfacet
  facet normal 0 0 1
    outer loop
      vertex 74 2 27
      vertex 3 0 27
      vertex 73 0 27
    endloop
  endfacet
  facet normal -0 0 1
    outer loop
      vertex 2 2 27
      vertex 3 0 27
      vertex 74 2 27
    endloop
  endfacet
  facet normal 0 0 1
    outer loop
      vertex 3 0 27
      vertex 2 2 27
      vertex 2.60842 0.0256653 27
    endloop
  endfacet
  facet normal 0 0 1
    outer loop
      vertex 2.60842 0.0256653 27
      vertex 2 2 27
      vertex 2.22354 0.102222 27
    endloop
  endfacet
  facet normal 0 0 1
    outer loop
      vertex 2 2 27
      vertex 1.85195 0.228361 27
      vertex 2.22354 0.102222 27
    endloop
  endfacet
  facet normal 0 0 1
    outer loop
      vertex 2 36 27
      vertex 0 35 27
      vertex 2 2 27
    endloop
  endfacet
  facet normal -0 0 1
    outer loop
      vertex 1.17372 37.3801 27
      vertex 2 36 27
      vertex 1.5 37.5981 27
    endloop
  endfacet
  facet normal -0 0 1
    outer loop
      vertex 0 3 27
      vertex 2 2 27
      vertex 0 35 27
    endloop
  endfacet
  facet normal -0 0 1
    outer loop
      vertex 0.878679 37.1213 27
      vertex 2 36 27
      vertex 1.17372 37.3801 27
    endloop
  endfacet
  facet normal -0 -0 1
    outer loop
      vertex 0.0256653 2.60842 27
      vertex 2 2 27
      vertex 0 3 27
    endloop
  endfacet
  facet normal -0 0 1
    outer loop
      vertex 0.61994 36.8263 27
      vertex 2 36 27
      vertex 0.878679 37.1213 27
    endloop
  endfacet
  facet normal 0 0 1
    outer loop
      vertex 2 2 27
      vertex 1.5 0.401923 27
      vertex 1.85195 0.228361 27
    endloop
  endfacet
  facet normal -0 0 1
    outer loop
      vertex 0.401923 36.5 27
      vertex 2 36 27
      vertex 0.61994 36.8263 27
    endloop
  endfacet
  facet normal 0 0 1
    outer loop
      vertex 2 2 27
      vertex 1.17372 0.61994 27
      vertex 1.5 0.401923 27
    endloop
  endfacet
  facet normal -0 0 1
    outer loop
      vertex 0.228361 36.148 27
      vertex 2 36 27
      vertex 0.401923 36.5 27
    endloop
  endfacet
  facet normal 0 0 1
    outer loop
      vertex 2 2 27
      vertex 0.878679 0.878679 27
      vertex 1.17372 0.61994 27
    endloop
  endfacet
  facet normal 0 0 1
    outer loop
      vertex 0.102222 35.7765 27
      vertex 2 36 27
      vertex 0.228361 36.148 27
    endloop
  endfacet
  facet normal 0 0 1
    outer loop
      vertex 2 2 27
      vertex 0.61994 1.17372 27
      vertex 0.878679 0.878679 27
    endloop
  endfacet
  facet normal 0 0 1
    outer loop
      vertex 0.0256653 35.3916 27
      vertex 2 36 27
      vertex 0.102222 35.7765 27
    endloop
  endfacet
  facet normal 0 0 1
    outer loop
      vertex 2 2 27
      vertex 0.401923 1.5 27
      vertex 0.61994 1.17372 27
    endloop
  endfacet
  facet normal 0 0 1
    outer loop
      vertex 2 36 27
      vertex 0.0256653 35.3916 27
      vertex 0 35 27
    endloop
  endfacet
  facet normal 0 0 1
    outer loop
      vertex 2 2 27
      vertex 0.228361 1.85195 27
      vertex 0.401923 1.5 27
    endloop
  endfacet
  facet normal 0 0 1
    outer loop
      vertex 2 2 27
      vertex 0.102222 2.22354 27
      vertex 0.228361 1.85195 27
    endloop
  endfacet
  facet normal 0 0 1
    outer loop
      vertex 2 2 27
      vertex 0.0256653 2.60842 27
      vertex 0.102222 2.22354 27
    endloop
  endfacet
  facet normal 1 -0 0
    outer loop
      vertex 76 3 27
      vertex 76 35 0
      vertex 76 35 27
    endloop
  endfacet
  facet normal 1 0 0
    outer loop
      vertex 76 35 0
      vertex 76 3 27
      vertex 76 3 0
    endloop
  endfacet
  facet normal -0.896873 -0.442288 0
    outer loop
      vertex 0.401923 1.5 0
      vertex 0.228361 1.85195 27
      vertex 0.228361 1.85195 0
    endloop
  endfacet
  facet normal -0.896873 -0.442288 0
    outer loop
      vertex 0.228361 1.85195 27
      vertex 0.401923 1.5 0
      vertex 0.401923 1.5 27
    endloop
  endfacet
  facet normal -1 0 0
    outer loop
      vertex 0 35 0
      vertex 0 25 14
      vertex 0 35 27
    endloop
  endfacet
  facet normal -1 0 0
    outer loop
      vertex 0 35 0
      vertex 0 13 14
      vertex 0 25 14
    endloop
  endfacet
  facet normal -1 0 0
    outer loop
      vertex 0 3 27
      vertex 0 13 14
      vertex 0 3 0
    endloop
  endfacet
  facet normal -1 0 0
    outer loop
      vertex 0 3 0
      vertex 0 13 14
      vertex 0 35 0
    endloop
  endfacet
  facet normal -1 0 0
    outer loop
      vertex 0 25 22
      vertex 0 35 27
      vertex 0 25 14
    endloop
  endfacet
  facet normal -1 0 0
    outer loop
      vertex 0 13 22
      vertex 0 35 27
      vertex 0 25 22
    endloop
  endfacet
  facet normal -1 0 0
    outer loop
      vertex 0 13 22
      vertex 0 3 27
      vertex 0 35 27
    endloop
  endfacet
  facet normal -1 0 0
    outer loop
      vertex 0 13 14
      vertex 0 3 27
      vertex 0 13 22
    endloop
  endfacet
  facet normal 0 0 -1
    outer loop
      vertex 73 0 0
      vertex 76 3 0
      vertex 75.9743 2.60842 0
    endloop
  endfacet
  facet normal -0 0 -1
    outer loop
      vertex 76 3 0
      vertex 73 0 0
      vertex 76 35 0
    endloop
  endfacet
  facet normal 0 0 -1
    outer loop
      vertex 73 0 0
      vertex 75.9743 2.60842 0
      vertex 75.8978 2.22354 0
    endloop
  endfacet
  facet normal 0 0 -1
    outer loop
      vertex 73 38 0
      vertex 76 35 0
      vertex 73 0 0
    endloop
  endfacet
  facet normal 0 0 -1
    outer loop
      vertex 73 0 0
      vertex 75.8978 2.22354 0
      vertex 75.7716 1.85195 0
    endloop
  endfacet
  facet normal 0 0 -1
    outer loop
      vertex 76 35 0
      vertex 73 38 0
      vertex 75.9743 35.3916 0
    endloop
  endfacet
  facet normal 0 0 -1
    outer loop
      vertex 73 0 0
      vertex 75.7716 1.85195 0
      vertex 75.5981 1.5 0
    endloop
  endfacet
  facet normal 0 0 -1
    outer loop
      vertex 75.9743 35.3916 0
      vertex 73 38 0
      vertex 75.8978 35.7765 0
    endloop
  endfacet
  facet normal 0 0 -1
    outer loop
      vertex 73 0 0
      vertex 75.5981 1.5 0
      vertex 75.3801 1.17372 0
    endloop
  endfacet
  facet normal 0 0 -1
    outer loop
      vertex 75.8978 35.7765 0
      vertex 73 38 0
      vertex 75.7716 36.148 0
    endloop
  endfacet
  facet normal 0 0 -1
    outer loop
      vertex 73 0 0
      vertex 75.3801 1.17372 0
      vertex 75.1213 0.878679 0
    endloop
  endfacet
  facet normal 0 0 -1
    outer loop
      vertex 75.7716 36.148 0
      vertex 73 38 0
      vertex 75.5981 36.5 0
    endloop
  endfacet
  facet normal 0 0 -1
    outer loop
      vertex 73 0 0
      vertex 75.1213 0.878679 0
      vertex 74.8263 0.61994 0
    endloop
  endfacet
  facet normal 0 0 -1
    outer loop
      vertex 75.5981 36.5 0
      vertex 73 38 0
      vertex 75.3801 36.8263 0
    endloop
  endfacet
  facet normal 0 0 -1
    outer loop
      vertex 73 0 0
      vertex 74.8263 0.61994 0
      vertex 74.5 0.401923 0
    endloop
  endfacet
  facet normal 0 0 -1
    outer loop
      vertex 75.3801 36.8263 0
      vertex 73 38 0
      vertex 75.1213 37.1213 0
    endloop
  endfacet
  facet normal 0 0 -1
    outer loop
      vertex 73 0 0
      vertex 74.5 0.401923 0
      vertex 74.148 0.228361 0
    endloop
  endfacet
  facet normal 0 0 -1
    outer loop
      vertex 75.1213 37.1213 0
      vertex 73 38 0
      vertex 74.8263 37.3801 0
    endloop
  endfacet
  facet normal 0 0 -1
    outer loop
      vertex 73 0 0
      vertex 74.148 0.228361 0
      vertex 73.7765 0.102222 0
    endloop
  endfacet
  facet normal 0 0 -1
    outer loop
      vertex 74.8263 37.3801 0
      vertex 73 38 0
      vertex 74.5 37.5981 0
    endloop
  endfacet
  facet normal 0 0 -1
    outer loop
      vertex 73 0 0
      vertex 73.7765 0.102222 0
      vertex 73.3916 0.0256653 0
    endloop
  endfacet
  facet normal 0 0 -1
    outer loop
      vertex 74.5 37.5981 0
      vertex 73 38 0
      vertex 74.148 37.7716 0
    endloop
  endfacet
  facet normal 0 0 -1
    outer loop
      vertex 74.148 37.7716 0
      vertex 73 38 0
      vertex 73.7765 37.8978 0
    endloop
  endfacet
  facet normal 0 0 -1
    outer loop
      vertex 73.7765 37.8978 0
      vertex 73 38 0
      vertex 73.3916 37.9743 0
    endloop
  endfacet
  facet normal 0 0 -1
    outer loop
      vertex 3 0 0
      vertex 73 38 0
      vertex 73 0 0
    endloop
  endfacet
  facet normal 0 0 -1
    outer loop
      vertex 3 0 0
      vertex 3 38 0
      vertex 73 38 0
    endloop
  endfacet
  facet normal 0 0 -1
    outer loop
      vertex 0 3 0
      vertex 3 0 0
      vertex 2.60842 0.0256653 0
    endloop
  endfacet
  facet normal 0 0 -1
    outer loop
      vertex 3 0 0
      vertex 0 3 0
      vertex 3 38 0
    endloop
  endfacet
  facet normal 0 0 -1
    outer loop
      vertex 0 3 0
      vertex 2.60842 0.0256653 0
      vertex 2.22354 0.102222 0
    endloop
  endfacet
  facet normal 0 0 -1
    outer loop
      vertex 0 35 0
      vertex 3 38 0
      vertex 0 3 0
    endloop
  endfacet
  facet normal 0 0 -1
    outer loop
      vertex 0 3 0
      vertex 2.22354 0.102222 0
      vertex 1.85195 0.228361 0
    endloop
  endfacet
  facet normal 0 0 -1
    outer loop
      vertex 3 38 0
      vertex 0 35 0
      vertex 2.60842 37.9743 0
    endloop
  endfacet
  facet normal 0 0 -1
    outer loop
      vertex 0 3 0
      vertex 1.85195 0.228361 0
      vertex 1.5 0.401923 0
    endloop
  endfacet
  facet normal 0 0 -1
    outer loop
      vertex 2.60842 37.9743 0
      vertex 0 35 0
      vertex 2.22354 37.8978 0
    endloop
  endfacet
  facet normal 0 0 -1
    outer loop
      vertex 0 3 0
      vertex 1.5 0.401923 0
      vertex 1.17372 0.61994 0
    endloop
  endfacet
  facet normal 0 0 -1
    outer loop
      vertex 2.22354 37.8978 0
      vertex 0 35 0
      vertex 1.85195 37.7716 0
    endloop
  endfacet
  facet normal 0 0 -1
    outer loop
      vertex 0 3 0
      vertex 1.17372 0.61994 0
      vertex 0.878679 0.878679 0
    endloop
  endfacet
  facet normal 0 0 -1
    outer loop
      vertex 1.85195 37.7716 0
      vertex 0 35 0
      vertex 1.5 37.5981 0
    endloop
  endfacet
  facet normal 0 0 -1
    outer loop
      vertex 0 3 0
      vertex 0.878679 0.878679 0
      vertex 0.61994 1.17372 0
    endloop
  endfacet
  facet normal 0 0 -1
    outer loop
      vertex 1.5 37.5981 0
      vertex 0 35 0
      vertex 1.17372 37.3801 0
    endloop
  endfacet
  facet normal 0 0 -1
    outer loop
      vertex 0 3 0
      vertex 0.61994 1.17372 0
      vertex 0.401923 1.5 0
    endloop
  endfacet
  facet normal 0 0 -1
    outer loop
      vertex 1.17372 37.3801 0
      vertex 0 35 0
      vertex 0.878679 37.1213 0
    endloop
  endfacet
  facet normal 0 0 -1
    outer loop
      vertex 0 3 0
      vertex 0.401923 1.5 0
      vertex 0.228361 1.85195 0
    endloop
  endfacet
  facet normal 0 0 -1
    outer loop
      vertex 0.878679 37.1213 0
      vertex 0 35 0
      vertex 0.61994 36.8263 0
    endloop
  endfacet
  facet normal 0 0 -1
    outer loop
      vertex 0 3 0
      vertex 0.228361 1.85195 0
      vertex 0.102222 2.22354 0
    endloop
  endfacet
  facet normal 0 0 -1
    outer loop
      vertex 0.61994 36.8263 0
      vertex 0 35 0
      vertex 0.401923 36.5 0
    endloop
  endfacet
  facet normal 0 0 -1
    outer loop
      vertex 0 3 0
      vertex 0.102222 2.22354 0
      vertex 0.0256653 2.60842 0
    endloop
  endfacet
  facet normal 0 0 -1
    outer loop
      vertex 0.401923 36.5 0
      vertex 0 35 0
      vertex 0.228361 36.148 0
    endloop
  endfacet
  facet normal 0 0 -1
    outer loop
      vertex 0.228361 36.148 0
      vertex 0 35 0
      vertex 0.102222 35.7765 0
    endloop
  endfacet
  facet normal 0 0 -1
    outer loop
      vertex 0.102222 35.7765 0
      vertex 0 35 0
      vertex 0.0256653 35.3916 0
    endloop
  endfacet
  facet normal 0.0654873 0.997853 -0
    outer loop
      vertex 73.3916 37.9743 0
      vertex 73 38 27
      vertex 73.3916 37.9743 27
    endloop
  endfacet
  facet normal 0.0654873 0.997853 0
    outer loop
      vertex 73 38 27
      vertex 73.3916 37.9743 0
      vertex 73 38 0
    endloop
  endfacet
  facet normal 0 1 -0
    outer loop
      vertex 73 38 0
      vertex 3 38 27
      vertex 73 38 27
    endloop
  endfacet
  facet normal 0 1 0
    outer loop
      vertex 3 38 27
      vertex 73 38 0
      vertex 3 38 0
    endloop
  endfacet
  facet normal -0.321582 0.946882 0
    outer loop
      vertex 2.22354 37.8978 0
      vertex 1.85195 37.7716 27
      vertex 2.22354 37.8978 27
    endloop
  endfacet
  facet normal -0.321582 0.946882 0
    outer loop
      vertex 1.85195 37.7716 27
      vertex 2.22354 37.8978 0
      vertex 1.85195 37.7716 0
    endloop
  endfacet
  facet normal 0.980815 0.19494 0
    outer loop
      vertex 75.9743 35.3916 27
      vertex 75.8978 35.7765 0
      vertex 75.8978 35.7765 27
    endloop
  endfacet
  facet normal 0.980815 0.19494 0
    outer loop
      vertex 75.8978 35.7765 0
      vertex 75.9743 35.3916 27
      vertex 75.9743 35.3916 0
    endloop
  endfacet
  facet normal 0.997853 0.0654873 0
    outer loop
      vertex 76 35 27
      vertex 75.9743 35.3916 0
      vertex 75.9743 35.3916 27
    endloop
  endfacet
  facet normal 0.997853 0.0654873 0
    outer loop
      vertex 75.9743 35.3916 0
      vertex 76 35 27
      vertex 76 35 0
    endloop
  endfacet
  facet normal 0.0653993 -0.997859 0
    outer loop
      vertex 73 0 0
      vertex 73.3916 0.0256653 27
      vertex 73 0 27
    endloop
  endfacet
  facet normal 0.0653993 -0.997859 0
    outer loop
      vertex 73.3916 0.0256653 27
      vertex 73 0 0
      vertex 73.3916 0.0256653 0
    endloop
  endfacet
  facet normal -0.0654026 -0.997859 0
    outer loop
      vertex 2.60842 0.0256653 0
      vertex 3 0 27
      vertex 2.60842 0.0256653 27
    endloop
  endfacet
  facet normal -0.0654026 -0.997859 -0
    outer loop
      vertex 3 0 27
      vertex 2.60842 0.0256653 0
      vertex 3 0 0
    endloop
  endfacet
  facet normal -0.831481 0.555553 0
    outer loop
      vertex 0.401923 36.5 0
      vertex 0.61994 36.8263 27
      vertex 0.61994 36.8263 0
    endloop
  endfacet
  facet normal -0.831481 0.555553 0
    outer loop
      vertex 0.61994 36.8263 27
      vertex 0.401923 36.5 0
      vertex 0.401923 36.5 27
    endloop
  endfacet
  facet normal -0.997859 0.0653993 0
    outer loop
      vertex 0 35 0
      vertex 0.0256653 35.3916 27
      vertex 0.0256653 35.3916 0
    endloop
  endfacet
  facet normal -0.997859 0.0653993 0
    outer loop
      vertex 0.0256653 35.3916 27
      vertex 0 35 0
      vertex 0 35 27
    endloop
  endfacet
  facet normal 0.659478 0.751724 -0
    outer loop
      vertex 75.1213 37.1213 0
      vertex 74.8263 37.3801 27
      vertex 75.1213 37.1213 27
    endloop
  endfacet
  facet normal 0.659478 0.751724 0
    outer loop
      vertex 74.8263 37.3801 27
      vertex 75.1213 37.1213 0
      vertex 74.8263 37.3801 0
    endloop
  endfacet
  facet normal 0.997853 -0.0654906 0
    outer loop
      vertex 75.9743 2.60842 27
      vertex 76 3 0
      vertex 76 3 27
    endloop
  endfacet
  facet normal 0.997853 -0.0654906 0
    outer loop
      vertex 76 3 0
      vertex 75.9743 2.60842 27
      vertex 75.9743 2.60842 0
    endloop
  endfacet
  facet normal 0.321512 -0.946905 0
    outer loop
      vertex 73.7765 0.102222 0
      vertex 74.148 0.228361 27
      vertex 73.7765 0.102222 27
    endloop
  endfacet
  facet normal 0.321512 -0.946905 0
    outer loop
      vertex 74.148 0.228361 27
      vertex 73.7765 0.102222 0
      vertex 74.148 0.228361 0
    endloop
  endfacet
  facet normal -0.751801 0.65939 0
    outer loop
      vertex 0.61994 36.8263 0
      vertex 0.878679 37.1213 27
      vertex 0.878679 37.1213 0
    endloop
  endfacet
  facet normal -0.751801 0.65939 0
    outer loop
      vertex 0.878679 37.1213 27
      vertex 0.61994 36.8263 0
      vertex 0.61994 36.8263 27
    endloop
  endfacet
  facet normal -0.659426 0.751769 0
    outer loop
      vertex 1.17372 37.3801 0
      vertex 0.878679 37.1213 27
      vertex 1.17372 37.3801 27
    endloop
  endfacet
  facet normal -0.659426 0.751769 0
    outer loop
      vertex 0.878679 37.1213 27
      vertex 1.17372 37.3801 0
      vertex 0.878679 37.1213 0
    endloop
  endfacet
  facet normal -0.44216 0.896936 0
    outer loop
      vertex 1.85195 37.7716 0
      vertex 1.5 37.5981 27
      vertex 1.85195 37.7716 27
    endloop
  endfacet
  facet normal -0.44216 0.896936 0
    outer loop
      vertex 1.5 37.5981 27
      vertex 1.85195 37.7716 0
      vertex 1.5 37.5981 0
    endloop
  endfacet
  facet normal -0.946905 0.321512 0
    outer loop
      vertex 0.102222 35.7765 0
      vertex 0.228361 36.148 27
      vertex 0.228361 36.148 0
    endloop
  endfacet
  facet normal -0.946905 0.321512 0
    outer loop
      vertex 0.228361 36.148 27
      vertex 0.102222 35.7765 0
      vertex 0.102222 35.7765 27
    endloop
  endfacet
  facet normal -0.896898 0.442237 0
    outer loop
      vertex 0.228361 36.148 0
      vertex 0.401923 36.5 27
      vertex 0.401923 36.5 0
    endloop
  endfacet
  facet normal -0.896898 0.442237 0
    outer loop
      vertex 0.401923 36.5 27
      vertex 0.228361 36.148 0
      vertex 0.228361 36.148 27
    endloop
  endfacet
  facet normal -0.980788 0.195079 0
    outer loop
      vertex 0.0256653 35.3916 0
      vertex 0.102222 35.7765 27
      vertex 0.102222 35.7765 0
    endloop
  endfacet
  facet normal -0.980788 0.195079 0
    outer loop
      vertex 0.102222 35.7765 27
      vertex 0.0256653 35.3916 0
      vertex 0.0256653 35.3916 27
    endloop
  endfacet
  facet normal 0.321651 0.946858 -0
    outer loop
      vertex 74.148 37.7716 0
      vertex 73.7765 37.8978 27
      vertex 74.148 37.7716 27
    endloop
  endfacet
  facet normal 0.321651 0.946858 0
    outer loop
      vertex 73.7765 37.8978 27
      vertex 74.148 37.7716 0
      vertex 73.7765 37.8978 0
    endloop
  endfacet
  facet normal 0.44211 0.896961 -0
    outer loop
      vertex 74.5 37.5981 0
      vertex 74.148 37.7716 27
      vertex 74.5 37.5981 27
    endloop
  endfacet
  facet normal 0.44211 0.896961 0
    outer loop
      vertex 74.148 37.7716 27
      vertex 74.5 37.5981 0
      vertex 74.148 37.7716 0
    endloop
  endfacet
  facet normal 0.555523 0.831501 -0
    outer loop
      vertex 74.8263 37.3801 0
      vertex 74.5 37.5981 27
      vertex 74.8263 37.3801 27
    endloop
  endfacet
  facet normal 0.555523 0.831501 0
    outer loop
      vertex 74.5 37.5981 27
      vertex 74.8263 37.3801 0
      vertex 74.5 37.5981 0
    endloop
  endfacet
  facet normal 0.896961 0.44211 0
    outer loop
      vertex 75.7716 36.148 27
      vertex 75.5981 36.5 0
      vertex 75.5981 36.5 27
    endloop
  endfacet
  facet normal 0.896961 0.44211 0
    outer loop
      vertex 75.5981 36.5 0
      vertex 75.7716 36.148 27
      vertex 75.7716 36.148 0
    endloop
  endfacet
  facet normal 0.946858 0.321651 0
    outer loop
      vertex 75.8978 35.7765 27
      vertex 75.7716 36.148 0
      vertex 75.7716 36.148 27
    endloop
  endfacet
  facet normal 0.946858 0.321651 0
    outer loop
      vertex 75.7716 36.148 0
      vertex 75.8978 35.7765 27
      vertex 75.8978 35.7765 0
    endloop
  endfacet
  facet normal -0.19495 0.980813 0
    outer loop
      vertex 2.60842 37.9743 0
      vertex 2.22354 37.8978 27
      vertex 2.60842 37.9743 27
    endloop
  endfacet
  facet normal -0.19495 0.980813 0
    outer loop
      vertex 2.22354 37.8978 27
      vertex 2.60842 37.9743 0
      vertex 2.22354 37.8978 0
    endloop
  endfacet
  facet normal -0.0654906 0.997853 0
    outer loop
      vertex 3 38 0
      vertex 2.60842 37.9743 27
      vertex 3 38 27
    endloop
  endfacet
  facet normal -0.0654906 0.997853 0
    outer loop
      vertex 2.60842 37.9743 27
      vertex 3 38 0
      vertex 2.60842 37.9743 0
    endloop
  endfacet
  facet normal 0.442237 -0.896898 0
    outer loop
      vertex 74.148 0.228361 0
      vertex 74.5 0.401923 27
      vertex 74.148 0.228361 27
    endloop
  endfacet
  facet normal 0.442237 -0.896898 0
    outer loop
      vertex 74.5 0.401923 27
      vertex 74.148 0.228361 0
      vertex 74.5 0.401923 0
    endloop
  endfacet
  facet normal 0.751769 -0.659426 0
    outer loop
      vertex 75.1213 0.878679 27
      vertex 75.3801 1.17372 0
      vertex 75.3801 1.17372 27
    endloop
  endfacet
  facet normal 0.751769 -0.659426 0
    outer loop
      vertex 75.3801 1.17372 0
      vertex 75.1213 0.878679 27
      vertex 75.1213 0.878679 0
    endloop
  endfacet
  facet normal 0.980813 -0.19495 0
    outer loop
      vertex 75.8978 2.22354 27
      vertex 75.9743 2.60842 0
      vertex 75.9743 2.60842 27
    endloop
  endfacet
  facet normal 0.980813 -0.19495 0
    outer loop
      vertex 75.9743 2.60842 0
      vertex 75.8978 2.22354 27
      vertex 75.8978 2.22354 0
    endloop
  endfacet
  facet normal -0.555577 -0.831465 0
    outer loop
      vertex 1.17372 0.61994 0
      vertex 1.5 0.401923 27
      vertex 1.17372 0.61994 27
    endloop
  endfacet
  facet normal -0.555577 -0.831465 -0
    outer loop
      vertex 1.5 0.401923 27
      vertex 1.17372 0.61994 0
      vertex 1.5 0.401923 0
    endloop
  endfacet
  facet normal -0.555547 0.831485 0
    outer loop
      vertex 1.5 37.5981 0
      vertex 1.17372 37.3801 27
      vertex 1.5 37.5981 27
    endloop
  endfacet
  facet normal -0.555547 0.831485 0
    outer loop
      vertex 1.17372 37.3801 27
      vertex 1.5 37.5981 0
      vertex 1.17372 37.3801 0
    endloop
  endfacet
  facet normal 0.19494 0.980815 -0
    outer loop
      vertex 73.7765 37.8978 0
      vertex 73.3916 37.9743 27
      vertex 73.7765 37.8978 27
    endloop
  endfacet
  facet normal 0.19494 0.980815 0
    outer loop
      vertex 73.3916 37.9743 27
      vertex 73.7765 37.8978 0
      vertex 73.3916 37.9743 0
    endloop
  endfacet
  facet normal 0.751724 0.659478 0
    outer loop
      vertex 75.3801 36.8263 27
      vertex 75.1213 37.1213 0
      vertex 75.1213 37.1213 27
    endloop
  endfacet
  facet normal 0.751724 0.659478 0
    outer loop
      vertex 75.1213 37.1213 0
      vertex 75.3801 36.8263 27
      vertex 75.3801 36.8263 0
    endloop
  endfacet
  facet normal 0.831501 0.555523 0
    outer loop
      vertex 75.5981 36.5 27
      vertex 75.3801 36.8263 0
      vertex 75.3801 36.8263 27
    endloop
  endfacet
  facet normal 0.831501 0.555523 0
    outer loop
      vertex 75.3801 36.8263 0
      vertex 75.5981 36.5 27
      vertex 75.5981 36.5 0
    endloop
  endfacet
  facet normal 0.65939 -0.751801 0
    outer loop
      vertex 74.8263 0.61994 0
      vertex 75.1213 0.878679 27
      vertex 74.8263 0.61994 27
    endloop
  endfacet
  facet normal 0.65939 -0.751801 0
    outer loop
      vertex 75.1213 0.878679 27
      vertex 74.8263 0.61994 0
      vertex 75.1213 0.878679 0
    endloop
  endfacet
  facet normal 0.946882 -0.321582 0
    outer loop
      vertex 75.7716 1.85195 27
      vertex 75.8978 2.22354 0
      vertex 75.8978 2.22354 27
    endloop
  endfacet
  facet normal 0.946882 -0.321582 0
    outer loop
      vertex 75.8978 2.22354 0
      vertex 75.7716 1.85195 27
      vertex 75.7716 1.85195 0
    endloop
  endfacet
  facet normal 0.896936 -0.44216 0
    outer loop
      vertex 75.5981 1.5 27
      vertex 75.7716 1.85195 0
      vertex 75.7716 1.85195 27
    endloop
  endfacet
  facet normal 0.896936 -0.44216 0
    outer loop
      vertex 75.7716 1.85195 0
      vertex 75.5981 1.5 27
      vertex 75.5981 1.5 0
    endloop
  endfacet
  facet normal -0.195089 -0.980786 0
    outer loop
      vertex 2.22354 0.102222 0
      vertex 2.60842 0.0256653 27
      vertex 2.22354 0.102222 27
    endloop
  endfacet
  facet normal -0.195089 -0.980786 -0
    outer loop
      vertex 2.60842 0.0256653 27
      vertex 2.22354 0.102222 0
      vertex 2.60842 0.0256653 0
    endloop
  endfacet
  facet normal -0.442288 -0.896873 0
    outer loop
      vertex 1.5 0.401923 0
      vertex 1.85195 0.228361 27
      vertex 1.5 0.401923 27
    endloop
  endfacet
  facet normal -0.442288 -0.896873 -0
    outer loop
      vertex 1.85195 0.228361 27
      vertex 1.5 0.401923 0
      vertex 1.85195 0.228361 0
    endloop
  endfacet
  facet normal -0.659339 -0.751846 0
    outer loop
      vertex 0.878679 0.878679 0
      vertex 1.17372 0.61994 27
      vertex 0.878679 0.878679 27
    endloop
  endfacet
  facet normal -0.659339 -0.751846 -0
    outer loop
      vertex 1.17372 0.61994 27
      vertex 0.878679 0.878679 0
      vertex 1.17372 0.61994 0
    endloop
  endfacet
  facet normal 0.195079 -0.980788 0
    outer loop
      vertex 73.3916 0.0256653 0
      vertex 73.7765 0.102222 27
      vertex 73.3916 0.0256653 27
    endloop
  endfacet
  facet normal 0.195079 -0.980788 0
    outer loop
      vertex 73.7765 0.102222 27
      vertex 73.3916 0.0256653 0
      vertex 73.7765 0.102222 0
    endloop
  endfacet
  facet normal 0.555553 -0.831481 0
    outer loop
      vertex 74.5 0.401923 0
      vertex 74.8263 0.61994 27
      vertex 74.5 0.401923 27
    endloop
  endfacet
  facet normal 0.555553 -0.831481 0
    outer loop
      vertex 74.8263 0.61994 27
      vertex 74.5 0.401923 0
      vertex 74.8263 0.61994 0
    endloop
  endfacet
  facet normal 0.831485 -0.555547 0
    outer loop
      vertex 75.3801 1.17372 27
      vertex 75.5981 1.5 0
      vertex 75.5981 1.5 27
    endloop
  endfacet
  facet normal 0.831485 -0.555547 0
    outer loop
      vertex 75.5981 1.5 0
      vertex 75.3801 1.17372 27
      vertex 75.3801 1.17372 0
    endloop
  endfacet
  facet normal -0.321442 -0.946929 0
    outer loop
      vertex 1.85195 0.228361 0
      vertex 2.22354 0.102222 27
      vertex 1.85195 0.228361 27
    endloop
  endfacet
  facet normal -0.321442 -0.946929 -0
    outer loop
      vertex 2.22354 0.102222 27
      vertex 1.85195 0.228361 0
      vertex 2.22354 0.102222 0
    endloop
  endfacet
  facet normal -0.751846 -0.659339 0
    outer loop
      vertex 0.878679 0.878679 0
      vertex 0.61994 1.17372 27
      vertex 0.61994 1.17372 0
    endloop
  endfacet
  facet normal -0.751846 -0.659339 0
    outer loop
      vertex 0.61994 1.17372 27
      vertex 0.878679 0.878679 0
      vertex 0.878679 0.878679 27
    endloop
  endfacet
  facet normal -0.831465 -0.555577 0
    outer loop
      vertex 0.61994 1.17372 0
      vertex 0.401923 1.5 27
      vertex 0.401923 1.5 0
    endloop
  endfacet
  facet normal -0.831465 -0.555577 0
    outer loop
      vertex 0.401923 1.5 27
      vertex 0.61994 1.17372 0
      vertex 0.61994 1.17372 27
    endloop
  endfacet
  facet normal -1 0 0
    outer loop
      vertex 2 2 27
      vertex 2 36 31
      vertex 2 36 27
    endloop
  endfacet
  facet normal -1 -0 0
    outer loop
      vertex 2 36 31
      vertex 2 2 27
      vertex 2 2 31
    endloop
  endfacet
  facet normal 1 0 0
    outer loop
      vertex 2 25 14
      vertex 2 36 23
      vertex 2 25 22
    endloop
  endfacet
  facet normal 1 0 0
    outer loop
      vertex 2 36 23
      vertex 2 13 22
      vertex 2 25 22
    endloop
  endfacet
  facet normal 1 0 0
    outer loop
      vertex 2 13 22
      vertex 2 2 23
      vertex 2 13 14
    endloop
  endfacet
  facet normal 1 -0 0
    outer loop
      vertex 2 2 23
      vertex 2 13 22
      vertex 2 36 23
    endloop
  endfacet
  facet normal 1 0 0
    outer loop
      vertex 2 36 23
      vertex 2 25 14
      vertex 2 36 2
    endloop
  endfacet
  facet normal 1 -0 0
    outer loop
      vertex 2 13 14
      vertex 2 36 2
      vertex 2 25 14
    endloop
  endfacet
  facet normal 1 0 0
    outer loop
      vertex 2 13 14
      vertex 2 2 2
      vertex 2 36 2
    endloop
  endfacet
  facet normal 1 0 0
    outer loop
      vertex 2 2 2
      vertex 2 13 14
      vertex 2 2 23
    endloop
  endfacet
  facet normal 1 -0 0
    outer loop
      vertex 74 2 31
      vertex 74 36 27
      vertex 74 36 31
    endloop
  endfacet
  facet normal 1 0 0
    outer loop
      vertex 74 36 27
      vertex 74 2 31
      vertex 74 2 27
    endloop
  endfacet
  facet normal -1 0 0
    outer loop
      vertex 74 36 2
      vertex 74 2.01 23
      vertex 74 36 23
    endloop
  endfacet
  facet normal -1 0 0
    outer loop
      vertex 74 2 2
      vertex 74 2.01 23
      vertex 74 36 2
    endloop
  endfacet
  facet normal -1 -0 0
    outer loop
      vertex 74 2.01 23
      vertex 74 2 2
      vertex 74 2 23
    endloop
  endfacet
  facet normal 0 1 -0
    outer loop
      vertex 74 36 27
      vertex 2 36 31
      vertex 74 36 31
    endloop
  endfacet
  facet normal 0 1 0
    outer loop
      vertex 2 36 31
      vertex 74 36 27
      vertex 2 36 27
    endloop
  endfacet
  facet normal 0 -1 0
    outer loop
      vertex 2 36 2
      vertex 2.01 36 23
      vertex 2 36 23
    endloop
  endfacet
  facet normal 0 -1 -0
    outer loop
      vertex 2.01 36 23
      vertex 2 36 2
      vertex 74 36 23
    endloop
  endfacet
  facet normal 0 -1 -0
    outer loop
      vertex 74 36 23
      vertex 2 36 2
      vertex 74 36 2
    endloop
  endfacet
  facet normal -0 0 1
    outer loop
      vertex 2 36 2
      vertex 74 2 2
      vertex 74 36 2
    endloop
  endfacet
  facet normal 0 0 1
    outer loop
      vertex 74 2 2
      vertex 2 36 2
      vertex 2 2 2
    endloop
  endfacet
  facet normal 0 -1 0
    outer loop
      vertex 2 2 27
      vertex 74 2 31
      vertex 2 2 31
    endloop
  endfacet
  facet normal 0 -1 -0
    outer loop
      vertex 74 2 31
      vertex 2 2 27
      vertex 74 2 27
    endloop
  endfacet
  facet normal 0 1 -0
    outer loop
      vertex 74 2 2
      vertex 2 2 23
      vertex 74 2 23
    endloop
  endfacet
  facet normal 0 1 0
    outer loop
      vertex 2 2 23
      vertex 74 2 2
      vertex 2 2 2
    endloop
  endfacet
  facet normal 0 0 -1
    outer loop
      vertex 0 13 22
      vertex 2 25 22
      vertex 2 13 22
    endloop
  endfacet
  facet normal -0 0 -1
    outer loop
      vertex 2 25 22
      vertex 0 13 22
      vertex 0 25 22
    endloop
  endfacet
  facet normal -0 0 1
    outer loop
      vertex 0 25 14
      vertex 2 13 14
      vertex 2 25 14
    endloop
  endfacet
  facet normal 0 0 1
    outer loop
      vertex 2 13 14
      vertex 0 25 14
      vertex 0 13 14
    endloop
  endfacet
  facet normal 0 1 -0
    outer loop
      vertex 2 13 14
      vertex 0 13 22
      vertex 2 13 22
    endloop
  endfacet
  facet normal 0 1 0
    outer loop
      vertex 0 13 22
      vertex 2 13 14
      vertex 0 13 14
    endloop
  endfacet
  facet normal 0 -1 0
    outer loop
      vertex 0 25 14
      vertex 2 25 22
      vertex 0 25 22
    endloop
  endfacet
  facet normal 0 -1 -0
    outer loop
      vertex 2 25 22
      vertex 0 25 14
      vertex 2 25 14
    endloop
  endfacet
  facet normal 0 0 1
    outer loop
      vertex 74 36 31
      vertex 72 34 31
      vertex 74 2 31
    endloop
  endfacet
  facet normal 0 0 1
    outer loop
      vertex 74 36 31
      vertex 4 34 31
      vertex 72 34 31
    endloop
  endfacet
  facet normal 0 0 1
    outer loop
      vertex 4 34 31
      vertex 2 36 31
      vertex 4 4 31
    endloop
  endfacet
  facet normal -0 0 1
    outer loop
      vertex 2 36 31
      vertex 4 34 31
      vertex 74 36 31
    endloop
  endfacet
  facet normal -0 0 1
    outer loop
      vertex 72 4 31
      vertex 74 2 31
      vertex 72 34 31
    endloop
  endfacet
  facet normal -0 0 1
    outer loop
      vertex 4 4 31
      vertex 74 2 31
      vertex 72 4 31
    endloop
  endfacet
  facet normal 0 0 1
    outer loop
      vertex 4 4 31
      vertex 2 2 31
      vertex 74 2 31
    endloop
  endfacet
  facet normal 0 0 1
    outer loop
      vertex 2 2 31
      vertex 4 4 31
      vertex 2 36 31
    endloop
  endfacet
  facet normal 1 -0 0
    outer loop
      vertex 4 4 31
      vertex 4 34 25.01
      vertex 4 34 31
    endloop
  endfacet
  facet normal 1 0 0
    outer loop
      vertex 4 34 25.01
      vertex 4 4 31
      vertex 4 4 25.01
    endloop
  endfacet
  facet normal 1 -0 0
    outer loop
      vertex 4 4 25.01
      vertex 4 34 25
      vertex 4 34 25.01
    endloop
  endfacet
  facet normal 1 0 0
    outer loop
      vertex 4 34 25
      vertex 4 4 25.01
      vertex 4 4 25
    endloop
  endfacet
  facet normal -1 0 0
    outer loop
      vertex 72 4 25.01
      vertex 72 34 31
      vertex 72 34 25.01
    endloop
  endfacet
  facet normal -1 -0 0
    outer loop
      vertex 72 34 31
      vertex 72 4 25.01
      vertex 72 4 31
    endloop
  endfacet
  facet normal -1 0 0
    outer loop
      vertex 72 4 25
      vertex 72 34 25.01
      vertex 72 34 25
    endloop
  endfacet
  facet normal -1 -0 0
    outer loop
      vertex 72 34 25.01
      vertex 72 4 25
      vertex 72 4 25.01
    endloop
  endfacet
  facet normal 0 -1 0
    outer loop
      vertex 4 34 25.01
      vertex 72 34 31
      vertex 4 34 31
    endloop
  endfacet
  facet normal 0 -1 -0
    outer loop
      vertex 72 34 31
      vertex 4 34 25.01
      vertex 72 34 25.01
    endloop
  endfacet
  facet normal 0 -1 0
    outer loop
      vertex 4 34 25
      vertex 72 34 25.01
      vertex 4 34 25.01
    endloop
  endfacet
  facet normal 0 -1 -0
    outer loop
      vertex 72 34 25.01
      vertex 4 34 25
      vertex 72 34 25
    endloop
  endfacet
  facet normal 0 1 -0
    outer loop
      vertex 72 4 25.01
      vertex 4 4 31
      vertex 72 4 31
    endloop
  endfacet
  facet normal 0 1 0
    outer loop
      vertex 4 4 31
      vertex 72 4 25.01
      vertex 4 4 25.01
    endloop
  endfacet
  facet normal 0 1 -0
    outer loop
      vertex 72 4 25
      vertex 4 4 25.01
      vertex 72 4 25.01
    endloop
  endfacet
  facet normal 0 1 0
    outer loop
      vertex 4 4 25.01
      vertex 72 4 25
      vertex 4 4 25
    endloop
  endfacet
  facet normal 0 0 -1
    outer loop
      vertex 74 2 23
      vertex 2.01 2.01 23
      vertex 74 2.01 23
    endloop
  endfacet
  facet normal 0 0 -1
    outer loop
      vertex 2 2 23
      vertex 2.01 2.01 23
      vertex 74 2 23
    endloop
  endfacet
  facet normal 0 0 -1
    outer loop
      vertex 2 36 23
      vertex 2.01 2.01 23
      vertex 2 2 23
    endloop
  endfacet
  facet normal 0 0 -1
    outer loop
      vertex 2.01 2.01 23
      vertex 2 36 23
      vertex 2.01 36 23
    endloop
  endfacet
  facet normal 0.708877 0 -0.705332
    outer loop
      vertex 4 4 25
      vertex 2.01 36 23
      vertex 4 34 25
    endloop
  endfacet
  facet normal 0.708877 0 -0.705332
    outer loop
      vertex 2.01 36 23
      vertex 4 4 25
      vertex 2.01 2.01 23
    endloop
  endfacet
  facet normal -0.707107 0 -0.707107
    outer loop
      vertex 74 36 23
      vertex 72 4 25
      vertex 72 34 25
    endloop
  endfacet
  facet normal -0.707107 0 -0.707107
    outer loop
      vertex 72 4 25
      vertex 74 36 23
      vertex 74 2.01 23
    endloop
  endfacet
  facet normal 0 0.708877 -0.705332
    outer loop
      vertex 74 2.01 23
      vertex 4 4 25
      vertex 72 4 25
    endloop
  endfacet
  facet normal 0 0.708877 -0.705332
    outer loop
      vertex 4 4 25
      vertex 74 2.01 23
      vertex 2.01 2.01 23
    endloop
  endfacet
  facet normal 0 -0.707107 -0.707107
    outer loop
      vertex 2.01 36 23
      vertex 72 34 25
      vertex 4 34 25
    endloop
  endfacet
  facet normal 0 -0.707107 -0.707107
    outer loop
      vertex 72 34 25
      vertex 2.01 36 23
      vertex 74 36 23
    endloop
  endfacet
  facet normal -0.980813 -0.19495 0
    outer loop
      vertex 86.1022 2.22354 0
      vertex 86.0257 2.60842 27
      vertex 86.0257 2.60842 0
    endloop
  endfacet
  facet normal -0.980813 -0.19495 0
    outer loop
      vertex 86.0257 2.60842 27
      vertex 86.1022 2.22354 0
      vertex 86.1022 2.22354 27
    endloop
  endfacet
  facet normal -0.946882 -0.321582 0
    outer loop
      vertex 86.2284 1.85195 0
      vertex 86.1022 2.22354 27
      vertex 86.1022 2.22354 0
    endloop
  endfacet
  facet normal -0.946882 -0.321582 0
    outer loop
      vertex 86.1022 2.22354 27
      vertex 86.2284 1.85195 0
      vertex 86.2284 1.85195 27
    endloop
  endfacet
  facet normal -0.997853 -0.0654906 0
    outer loop
      vertex 86.0257 2.60842 0
      vertex 86 3 27
      vertex 86 3 0
    endloop
  endfacet
  facet normal -0.997853 -0.0654906 0
    outer loop
      vertex 86 3 27
      vertex 86.0257 2.60842 0
      vertex 86.0257 2.60842 27
    endloop
  endfacet
  facet normal 0 -1 0
    outer loop
      vertex 89 0 0
      vertex 159 0 27
      vertex 89 0 27
    endloop
  endfacet
  facet normal 0 -1 -0
    outer loop
      vertex 159 0 27
      vertex 89 0 0
      vertex 159 0 0
    endloop
  endfacet
  facet normal 0 0 1
    outer loop
      vertex 159 38 27
      vertex 162 35 27
      vertex 161.974 35.3916 27
    endloop
  endfacet
  facet normal 0 0 1
    outer loop
      vertex 124.5 30.5 27
      vertex 162 35 27
      vertex 159 38 27
    endloop
  endfacet
  facet normal 0 0 1
    outer loop
      vertex 159 38 27
      vertex 161.974 35.3916 27
      vertex 161.898 35.7765 27
    endloop
  endfacet
  facet normal 0 0 1
    outer loop
      vertex 162 35 27
      vertex 124.5 30.5 27
      vertex 162 3 27
    endloop
  endfacet
  facet normal 0 0 1
    outer loop
      vertex 159 38 27
      vertex 161.898 35.7765 27
      vertex 161.772 36.148 27
    endloop
  endfacet
  facet normal 0 0 1
    outer loop
      vertex 162 3 27
      vertex 159 0 27
      vertex 161.974 2.60842 27
    endloop
  endfacet
  facet normal 0 0 1
    outer loop
      vertex 159 38 27
      vertex 161.772 36.148 27
      vertex 161.598 36.5 27
    endloop
  endfacet
  facet normal 0 0 1
    outer loop
      vertex 161.974 2.60842 27
      vertex 159 0 27
      vertex 161.898 2.22354 27
    endloop
  endfacet
  facet normal 0 0 1
    outer loop
      vertex 159 38 27
      vertex 161.598 36.5 27
      vertex 161.38 36.8263 27
    endloop
  endfacet
  facet normal 0 0 1
    outer loop
      vertex 161.898 2.22354 27
      vertex 159 0 27
      vertex 161.772 1.85195 27
    endloop
  endfacet
  facet normal 0 0 1
    outer loop
      vertex 159 38 27
      vertex 161.38 36.8263 27
      vertex 161.121 37.1213 27
    endloop
  endfacet
  facet normal 0 0 1
    outer loop
      vertex 161.772 1.85195 27
      vertex 159 0 27
      vertex 161.598 1.5 27
    endloop
  endfacet
  facet normal 0 0 1
    outer loop
      vertex 159 38 27
      vertex 161.121 37.1213 27
      vertex 160.826 37.3801 27
    endloop
  endfacet
  facet normal 0 0 1
    outer loop
      vertex 161.598 1.5 27
      vertex 159 0 27
      vertex 161.38 1.17372 27
    endloop
  endfacet
  facet normal 0 0 1
    outer loop
      vertex 159 38 27
      vertex 160.826 37.3801 27
      vertex 160.5 37.5981 27
    endloop
  endfacet
  facet normal 0 0 1
    outer loop
      vertex 161.38 1.17372 27
      vertex 159 0 27
      vertex 161.121 0.878679 27
    endloop
  endfacet
  facet normal 0 0 1
    outer loop
      vertex 159 38 27
      vertex 160.5 37.5981 27
      vertex 160.148 37.7716 27
    endloop
  endfacet
  facet normal 0 0 1
    outer loop
      vertex 161.121 0.878679 27
      vertex 159 0 27
      vertex 160.826 0.61994 27
    endloop
  endfacet
  facet normal 0 0 1
    outer loop
      vertex 159 38 27
      vertex 160.148 37.7716 27
      vertex 159.776 37.8978 27
    endloop
  endfacet
  facet normal 0 0 1
    outer loop
      vertex 160.826 0.61994 27
      vertex 159 0 27
      vertex 160.5 0.401923 27
    endloop
  endfacet
  facet normal 0 0 1
    outer loop
      vertex 159 38 27
      vertex 159.776 37.8978 27
      vertex 159.392 37.9743 27
    endloop
  endfacet
  facet normal 0 0 1
    outer loop
      vertex 160.5 0.401923 27
      vertex 159 0 27
      vertex 160.148 0.228361 27
    endloop
  endfacet
  facet normal 0 0 1
    outer loop
      vertex 160.148 0.228361 27
      vertex 159 0 27
      vertex 159.776 0.102222 27
    endloop
  endfacet
  facet normal 0 0 1
    outer loop
      vertex 159.776 0.102222 27
      vertex 159 0 27
      vertex 159.392 0.0256653 27
    endloop
  endfacet
  facet normal -0 0 1
    outer loop
      vertex 124.5 7.5 27
      vertex 162 3 27
      vertex 124.5 30.5 27
    endloop
  endfacet
  facet normal -0 0 1
    outer loop
      vertex 89 38 27
      vertex 124.5 30.5 27
      vertex 159 38 27
    endloop
  endfacet
  facet normal -0 0 1
    outer loop
      vertex 86 35 27
      vertex 90 30.5 27
      vertex 89 38 27
    endloop
  endfacet
  facet normal 0 0 1
    outer loop
      vertex 124.5 30.5 27
      vertex 89 38 27
      vertex 90 30.5 27
    endloop
  endfacet
  facet normal 0 0 1
    outer loop
      vertex 162 3 27
      vertex 124.5 7.5 27
      vertex 159 0 27
    endloop
  endfacet
  facet normal 0 0 1
    outer loop
      vertex 89 0 27
      vertex 124.5 7.5 27
      vertex 90 7.5 27
    endloop
  endfacet
  facet normal 0 0 1
    outer loop
      vertex 124.5 7.5 27
      vertex 89 0 27
      vertex 159 0 27
    endloop
  endfacet
  facet normal 0 0 1
    outer loop
      vertex 90 30.5 27
      vertex 86 35 27
      vertex 90 7.5 27
    endloop
  endfacet
  facet normal 0 0 1
    outer loop
      vertex 86 35 27
      vertex 89 38 27
      vertex 88.6084 37.9743 27
    endloop
  endfacet
  facet normal 0 0 1
    outer loop
      vertex 86 3 27
      vertex 90 7.5 27
      vertex 86 35 27
    endloop
  endfacet
  facet normal 0 0 1
    outer loop
      vertex 86 35 27
      vertex 88.6084 37.9743 27
      vertex 88.2235 37.8978 27
    endloop
  endfacet
  facet normal 0 0 1
    outer loop
      vertex 90 7.5 27
      vertex 86 3 27
      vertex 89 0 27
    endloop
  endfacet
  facet normal 0 0 1
    outer loop
      vertex 86 35 27
      vertex 88.2235 37.8978 27
      vertex 87.852 37.7716 27
    endloop
  endfacet
  facet normal 0 0 1
    outer loop
      vertex 89 0 27
      vertex 86 3 27
      vertex 88.6084 0.0256653 27
    endloop
  endfacet
  facet normal 0 0 1
    outer loop
      vertex 86 35 27
      vertex 87.852 37.7716 27
      vertex 87.5 37.5981 27
    endloop
  endfacet
  facet normal 0 0 1
    outer loop
      vertex 88.6084 0.0256653 27
      vertex 86 3 27
      vertex 88.2235 0.102222 27
    endloop
  endfacet
  facet normal 0 0 1
    outer loop
      vertex 86 35 27
      vertex 87.5 37.5981 27
      vertex 87.1737 37.3801 27
    endloop
  endfacet
  facet normal 0 0 1
    outer loop
      vertex 88.2235 0.102222 27
      vertex 86 3 27
      vertex 87.852 0.228361 27
    endloop
  endfacet
  facet normal 0 0 1
    outer loop
      vertex 86 35 27
      vertex 87.1737 37.3801 27
      vertex 86.8787 37.1213 27
    endloop
  endfacet
  facet normal 0 0 1
    outer loop
      vertex 87.852 0.228361 27
      vertex 86 3 27
      vertex 87.5 0.401923 27
    endloop
  endfacet
  facet normal 0 0 1
    outer loop
      vertex 86 35 27
      vertex 86.8787 37.1213 27
      vertex 86.6199 36.8263 27
    endloop
  endfacet
  facet normal 0 0 1
    outer loop
      vertex 87.5 0.401923 27
      vertex 86 3 27
      vertex 87.1737 0.61994 27
    endloop
  endfacet
  facet normal 0 0 1
    outer loop
      vertex 86 35 27
      vertex 86.6199 36.8263 27
      vertex 86.4019 36.5 27
    endloop
  endfacet
  facet normal 0 0 1
    outer loop
      vertex 87.1737 0.61994 27
      vertex 86 3 27
      vertex 86.8787 0.878679 27
    endloop
  endfacet
  facet normal 0 0 1
    outer loop
      vertex 86 35 27
      vertex 86.4019 36.5 27
      vertex 86.2284 36.148 27
    endloop
  endfacet
  facet normal 0 0 1
    outer loop
      vertex 86.8787 0.878679 27
      vertex 86 3 27
      vertex 86.6199 1.17372 27
    endloop
  endfacet
  facet normal 0 0 1
    outer loop
      vertex 86 35 27
      vertex 86.2284 36.148 27
      vertex 86.1022 35.7765 27
    endloop
  endfacet
  facet normal 0 0 1
    outer loop
      vertex 86.6199 1.17372 27
      vertex 86 3 27
      vertex 86.4019 1.5 27
    endloop
  endfacet
  facet normal 0 0 1
    outer loop
      vertex 86 35 27
      vertex 86.1022 35.7765 27
      vertex 86.0257 35.3916 27
    endloop
  endfacet
  facet normal 0 0 1
    outer loop
      vertex 86.4019 1.5 27
      vertex 86 3 27
      vertex 86.2284 1.85195 27
    endloop
  endfacet
  facet normal 0 0 1
    outer loop
      vertex 86.2284 1.85195 27
      vertex 86 3 27
      vertex 86.1022 2.22354 27
    endloop
  endfacet
  facet normal 0 0 1
    outer loop
      vertex 86.1022 2.22354 27
      vertex 86 3 27
      vertex 86.0257 2.60842 27
    endloop
  endfacet
  facet normal 1 -0 0
    outer loop
      vertex 162 3 27
      vertex 162 35 0
      vertex 162 35 27
    endloop
  endfacet
  facet normal 1 0 0
    outer loop
      vertex 162 35 0
      vertex 162 3 27
      vertex 162 3 0
    endloop
  endfacet
  facet normal -0.896936 -0.44216 0
    outer loop
      vertex 86.4019 1.5 0
      vertex 86.2284 1.85195 27
      vertex 86.2284 1.85195 0
    endloop
  endfacet
  facet normal -0.896936 -0.44216 0
    outer loop
      vertex 86.2284 1.85195 27
      vertex 86.4019 1.5 0
      vertex 86.4019 1.5 27
    endloop
  endfacet
  facet normal -1 0 0
    outer loop
      vertex 86 11 0
      vertex 86 3 0
      vertex 86 11 8
    endloop
  endfacet
  facet normal -1 0 0
    outer loop
      vertex 86 27 8
      vertex 86 35 0
      vertex 86 27 0
    endloop
  endfacet
  facet normal -1 0 0
    outer loop
      vertex 86 35 0
      vertex 86 27 8
      vertex 86 35 27
    endloop
  endfacet
  facet normal -1 0 0
    outer loop
      vertex 86 11 8
      vertex 86 35 27
      vertex 86 27 8
    endloop
  endfacet
  facet normal -1 0 0
    outer loop
      vertex 86 11 8
      vertex 86 3 27
      vertex 86 35 27
    endloop
  endfacet
  facet normal -1 0 0
    outer loop
      vertex 86 3 27
      vertex 86 11 8
      vertex 86 3 0
    endloop
  endfacet
  facet normal 0 0 -1
    outer loop
      vertex 86.8787 0.878679 0
      vertex 88 2 0
      vertex 87.1737 0.61994 0
    endloop
  endfacet
  facet normal 0 0 -1
    outer loop
      vertex 86.6199 1.17372 0
      vertex 88 2 0
      vertex 86.8787 0.878679 0
    endloop
  endfacet
  facet normal 0 0 -1
    outer loop
      vertex 86.4019 1.5 0
      vertex 88 2 0
      vertex 86.6199 1.17372 0
    endloop
  endfacet
  facet normal 0 0 -1
    outer loop
      vertex 86.2284 1.85195 0
      vertex 88 2 0
      vertex 86.4019 1.5 0
    endloop
  endfacet
  facet normal 0 0 -1
    outer loop
      vertex 86.1022 2.22354 0
      vertex 88 2 0
      vertex 86.2284 1.85195 0
    endloop
  endfacet
  facet normal 0 0 -1
    outer loop
      vertex 86.0257 2.60842 0
      vertex 88 2 0
      vertex 86.1022 2.22354 0
    endloop
  endfacet
  facet normal 0 0 -1
    outer loop
      vertex 88 2 0
      vertex 86.0257 2.60842 0
      vertex 86 3 0
    endloop
  endfacet
  facet normal 0 0 -1
    outer loop
      vertex 88 2 0
      vertex 86 3 0
      vertex 87.5 11 0
    endloop
  endfacet
  facet normal -0 0 -1
    outer loop
      vertex 87.5 11 0
      vertex 86 3 0
      vertex 86 11 0
    endloop
  endfacet
  facet normal 0 0 -1
    outer loop
      vertex 160 2 0
      vertex 162 3 0
      vertex 161.974 2.60842 0
    endloop
  endfacet
  facet normal -0 0 -1
    outer loop
      vertex 162 3 0
      vertex 160 2 0
      vertex 162 35 0
    endloop
  endfacet
  facet normal 0 0 -1
    outer loop
      vertex 160 2 0
      vertex 161.974 2.60842 0
      vertex 161.898 2.22354 0
    endloop
  endfacet
  facet normal 0 0 -1
    outer loop
      vertex 160 36 0
      vertex 162 35 0
      vertex 160 2 0
    endloop
  endfacet
  facet normal 0 0 -1
    outer loop
      vertex 160 2 0
      vertex 161.898 2.22354 0
      vertex 161.772 1.85195 0
    endloop
  endfacet
  facet normal 0 0 -1
    outer loop
      vertex 162 35 0
      vertex 160 36 0
      vertex 161.974 35.3916 0
    endloop
  endfacet
  facet normal 0 0 -1
    outer loop
      vertex 160 2 0
      vertex 161.772 1.85195 0
      vertex 161.598 1.5 0
    endloop
  endfacet
  facet normal 0 0 -1
    outer loop
      vertex 161.974 35.3916 0
      vertex 160 36 0
      vertex 161.898 35.7765 0
    endloop
  endfacet
  facet normal 0 0 -1
    outer loop
      vertex 160 2 0
      vertex 161.598 1.5 0
      vertex 161.38 1.17372 0
    endloop
  endfacet
  facet normal 0 0 -1
    outer loop
      vertex 161.898 35.7765 0
      vertex 160 36 0
      vertex 161.772 36.148 0
    endloop
  endfacet
  facet normal 0 0 -1
    outer loop
      vertex 160 2 0
      vertex 161.38 1.17372 0
      vertex 161.121 0.878679 0
    endloop
  endfacet
  facet normal -0 0 -1
    outer loop
      vertex 161.772 36.148 0
      vertex 160 36 0
      vertex 161.598 36.5 0
    endloop
  endfacet
  facet normal 0 0 -1
    outer loop
      vertex 160 2 0
      vertex 161.121 0.878679 0
      vertex 160.826 0.61994 0
    endloop
  endfacet
  facet normal -0 0 -1
    outer loop
      vertex 161.598 36.5 0
      vertex 160 36 0
      vertex 161.38 36.8263 0
    endloop
  endfacet
  facet normal 0 0 -1
    outer loop
      vertex 160 2 0
      vertex 160.826 0.61994 0
      vertex 160.5 0.401923 0
    endloop
  endfacet
  facet normal -0 0 -1
    outer loop
      vertex 161.38 36.8263 0
      vertex 160 36 0
      vertex 161.121 37.1213 0
    endloop
  endfacet
  facet normal 0 0 -1
    outer loop
      vertex 160 2 0
      vertex 160.5 0.401923 0
      vertex 160.148 0.228361 0
    endloop
  endfacet
  facet normal -0 0 -1
    outer loop
      vertex 161.121 37.1213 0
      vertex 160 36 0
      vertex 160.826 37.3801 0
    endloop
  endfacet
  facet normal -0 0 -1
    outer loop
      vertex 160.826 37.3801 0
      vertex 160 36 0
      vertex 160.5 37.5981 0
    endloop
  endfacet
  facet normal 0 0 -1
    outer loop
      vertex 159.776 0.102222 0
      vertex 160 2 0
      vertex 160.148 0.228361 0
    endloop
  endfacet
  facet normal 0 0 -1
    outer loop
      vertex 159.392 0.0256653 0
      vertex 160 2 0
      vertex 159.776 0.102222 0
    endloop
  endfacet
  facet normal 0 0 -1
    outer loop
      vertex 159 0 0
      vertex 160 2 0
      vertex 159.392 0.0256653 0
    endloop
  endfacet
  facet normal 0 0 -1
    outer loop
      vertex 89 0 0
      vertex 160 2 0
      vertex 159 0 0
    endloop
  endfacet
  facet normal 0 0 -1
    outer loop
      vertex 88 2 0
      vertex 89 0 0
      vertex 88.6084 0.0256653 0
    endloop
  endfacet
  facet normal 0 0 -1
    outer loop
      vertex 88 2 0
      vertex 88.6084 0.0256653 0
      vertex 88.2235 0.102222 0
    endloop
  endfacet
  facet normal 0 0 -1
    outer loop
      vertex 89 0 0
      vertex 88 2 0
      vertex 160 2 0
    endloop
  endfacet
  facet normal 0 0 -1
    outer loop
      vertex 87.5 0.401923 0
      vertex 88 2 0
      vertex 87.852 0.228361 0
    endloop
  endfacet
  facet normal 0 0 -1
    outer loop
      vertex 87.852 0.228361 0
      vertex 88 2 0
      vertex 88.2235 0.102222 0
    endloop
  endfacet
  facet normal -0 0 -1
    outer loop
      vertex 160.5 37.5981 0
      vertex 160 36 0
      vertex 160.148 37.7716 0
    endloop
  endfacet
  facet normal 0 0 -1
    outer loop
      vertex 160 36 0
      vertex 159.776 37.8978 0
      vertex 160.148 37.7716 0
    endloop
  endfacet
  facet normal 0 0 -1
    outer loop
      vertex 160 36 0
      vertex 159.392 37.9743 0
      vertex 159.776 37.8978 0
    endloop
  endfacet
  facet normal 0 0 -1
    outer loop
      vertex 160 36 0
      vertex 159 38 0
      vertex 159.392 37.9743 0
    endloop
  endfacet
  facet normal 0 0 -1
    outer loop
      vertex 160 36 0
      vertex 89 38 0
      vertex 159 38 0
    endloop
  endfacet
  facet normal 0 0 -1
    outer loop
      vertex 88 36 0
      vertex 89 38 0
      vertex 160 36 0
    endloop
  endfacet
  facet normal 0 0 -1
    outer loop
      vertex 89 38 0
      vertex 88 36 0
      vertex 88.6084 37.9743 0
    endloop
  endfacet
  facet normal 0 0 -1
    outer loop
      vertex 88.6084 37.9743 0
      vertex 88 36 0
      vertex 88.2235 37.8978 0
    endloop
  endfacet
  facet normal 0 0 -1
    outer loop
      vertex 88 36 0
      vertex 87.852 37.7716 0
      vertex 88.2235 37.8978 0
    endloop
  endfacet
  facet normal 0 0 -1
    outer loop
      vertex 88 2 0
      vertex 87.5 11 0
      vertex 88 36 0
    endloop
  endfacet
  facet normal 0 0 -1
    outer loop
      vertex 87.1737 0.61994 0
      vertex 88 2 0
      vertex 87.5 0.401923 0
    endloop
  endfacet
  facet normal 0 0 -1
    outer loop
      vertex 87.5 27 0
      vertex 88 36 0
      vertex 87.5 11 0
    endloop
  endfacet
  facet normal 0 0 -1
    outer loop
      vertex 86 35 0
      vertex 88 36 0
      vertex 87.5 27 0
    endloop
  endfacet
  facet normal 0 -0 -1
    outer loop
      vertex 86.0257 35.3916 0
      vertex 88 36 0
      vertex 86 35 0
    endloop
  endfacet
  facet normal 0 0 -1
    outer loop
      vertex 88 36 0
      vertex 87.5 37.5981 0
      vertex 87.852 37.7716 0
    endloop
  endfacet
  facet normal 0 0 -1
    outer loop
      vertex 88 36 0
      vertex 87.1737 37.3801 0
      vertex 87.5 37.5981 0
    endloop
  endfacet
  facet normal 0 0 -1
    outer loop
      vertex 88 36 0
      vertex 86.8787 37.1213 0
      vertex 87.1737 37.3801 0
    endloop
  endfacet
  facet normal 0 0 -1
    outer loop
      vertex 88 36 0
      vertex 86.6199 36.8263 0
      vertex 86.8787 37.1213 0
    endloop
  endfacet
  facet normal 0 0 -1
    outer loop
      vertex 88 36 0
      vertex 86.4019 36.5 0
      vertex 86.6199 36.8263 0
    endloop
  endfacet
  facet normal 0 0 -1
    outer loop
      vertex 88 36 0
      vertex 86.2284 36.148 0
      vertex 86.4019 36.5 0
    endloop
  endfacet
  facet normal -0 0 -1
    outer loop
      vertex 88 36 0
      vertex 86.1022 35.7765 0
      vertex 86.2284 36.148 0
    endloop
  endfacet
  facet normal 0 0 -1
    outer loop
      vertex 86 35 0
      vertex 87.5 27 0
      vertex 86 27 0
    endloop
  endfacet
  facet normal 0 0 -1
    outer loop
      vertex 88 36 0
      vertex 86.0257 35.3916 0
      vertex 86.1022 35.7765 0
    endloop
  endfacet
  facet normal -0.896961 0.44211 0
    outer loop
      vertex 86.2284 36.148 0
      vertex 86.4019 36.5 27
      vertex 86.4019 36.5 0
    endloop
  endfacet
  facet normal -0.896961 0.44211 0
    outer loop
      vertex 86.4019 36.5 27
      vertex 86.2284 36.148 0
      vertex 86.2284 36.148 27
    endloop
  endfacet
  facet normal 0.947013 0.321194 0
    outer loop
      vertex 161.898 35.7765 27
      vertex 161.772 36.148 0
      vertex 161.772 36.148 27
    endloop
  endfacet
  facet normal 0.947013 0.321194 0
    outer loop
      vertex 161.772 36.148 0
      vertex 161.898 35.7765 27
      vertex 161.898 35.7765 0
    endloop
  endfacet
  facet normal 0 1 -0
    outer loop
      vertex 159 38 0
      vertex 89 38 27
      vertex 159 38 27
    endloop
  endfacet
  facet normal 0 1 0
    outer loop
      vertex 89 38 27
      vertex 159 38 0
      vertex 89 38 0
    endloop
  endfacet
  facet normal -0.0654873 0.997853 0
    outer loop
      vertex 89 38 0
      vertex 88.6084 37.9743 27
      vertex 89 38 27
    endloop
  endfacet
  facet normal -0.0654873 0.997853 0
    outer loop
      vertex 88.6084 37.9743 27
      vertex 89 38 0
      vertex 88.6084 37.9743 0
    endloop
  endfacet
  facet normal 0.981058 0.193714 0
    outer loop
      vertex 161.974 35.3916 27
      vertex 161.898 35.7765 0
      vertex 161.898 35.7765 27
    endloop
  endfacet
  facet normal 0.981058 0.193714 0
    outer loop
      vertex 161.898 35.7765 0
      vertex 161.974 35.3916 27
      vertex 161.974 35.3916 0
    endloop
  endfacet
  facet normal 0.997803 0.0662484 0
    outer loop
      vertex 162 35 27
      vertex 161.974 35.3916 0
      vertex 161.974 35.3916 27
    endloop
  endfacet
  facet normal 0.997803 0.0662484 0
    outer loop
      vertex 161.974 35.3916 0
      vertex 162 35 27
      vertex 162 35 0
    endloop
  endfacet
  facet normal 0.0653328 -0.997864 0
    outer loop
      vertex 159 0 0
      vertex 159.392 0.0256653 27
      vertex 159 0 27
    endloop
  endfacet
  facet normal 0.0653328 -0.997864 0
    outer loop
      vertex 159.392 0.0256653 27
      vertex 159 0 0
      vertex 159.392 0.0256653 0
    endloop
  endfacet
  facet normal -0.0653993 -0.997859 0
    outer loop
      vertex 88.6084 0.0256653 0
      vertex 89 0 27
      vertex 88.6084 0.0256653 27
    endloop
  endfacet
  facet normal -0.0653993 -0.997859 -0
    outer loop
      vertex 89 0 27
      vertex 88.6084 0.0256653 0
      vertex 89 0 0
    endloop
  endfacet
  facet normal -0.555553 -0.831481 0
    outer loop
      vertex 87.1737 0.61994 0
      vertex 87.5 0.401923 27
      vertex 87.1737 0.61994 27
    endloop
  endfacet
  facet normal -0.555553 -0.831481 -0
    outer loop
      vertex 87.5 0.401923 27
      vertex 87.1737 0.61994 0
      vertex 87.5 0.401923 0
    endloop
  endfacet
  facet normal -0.659478 0.751724 0
    outer loop
      vertex 87.1737 37.3801 0
      vertex 86.8787 37.1213 27
      vertex 87.1737 37.3801 27
    endloop
  endfacet
  facet normal -0.659478 0.751724 0
    outer loop
      vertex 86.8787 37.1213 27
      vertex 87.1737 37.3801 0
      vertex 86.8787 37.1213 0
    endloop
  endfacet
  facet normal -0.831501 0.555523 0
    outer loop
      vertex 86.4019 36.5 0
      vertex 86.6199 36.8263 27
      vertex 86.6199 36.8263 0
    endloop
  endfacet
  facet normal -0.831501 0.555523 0
    outer loop
      vertex 86.6199 36.8263 27
      vertex 86.4019 36.5 0
      vertex 86.4019 36.5 27
    endloop
  endfacet
  facet normal -0.751724 0.659478 0
    outer loop
      vertex 86.6199 36.8263 0
      vertex 86.8787 37.1213 27
      vertex 86.8787 37.1213 0
    endloop
  endfacet
  facet normal -0.751724 0.659478 0
    outer loop
      vertex 86.8787 37.1213 27
      vertex 86.6199 36.8263 0
      vertex 86.6199 36.8263 27
    endloop
  endfacet
  facet normal 0.321264 0.94699 -0
    outer loop
      vertex 160.148 37.7716 0
      vertex 159.776 37.8978 27
      vertex 160.148 37.7716 27
    endloop
  endfacet
  facet normal 0.321264 0.94699 0
    outer loop
      vertex 159.776 37.8978 27
      vertex 160.148 37.7716 0
      vertex 159.776 37.8978 0
    endloop
  endfacet
  facet normal 0.44211 0.896961 -0
    outer loop
      vertex 160.5 37.5981 0
      vertex 160.148 37.7716 27
      vertex 160.5 37.5981 27
    endloop
  endfacet
  facet normal 0.44211 0.896961 0
    outer loop
      vertex 160.148 37.7716 27
      vertex 160.5 37.5981 0
      vertex 160.148 37.7716 0
    endloop
  endfacet
  facet normal 0.896455 0.443134 0
    outer loop
      vertex 161.772 36.148 27
      vertex 161.598 36.5 0
      vertex 161.598 36.5 27
    endloop
  endfacet
  facet normal 0.896455 0.443134 0
    outer loop
      vertex 161.598 36.5 0
      vertex 161.772 36.148 27
      vertex 161.772 36.148 0
    endloop
  endfacet
  facet normal -0.321651 0.946858 0
    outer loop
      vertex 88.2235 37.8978 0
      vertex 87.852 37.7716 27
      vertex 88.2235 37.8978 27
    endloop
  endfacet
  facet normal -0.321651 0.946858 0
    outer loop
      vertex 87.852 37.7716 27
      vertex 88.2235 37.8978 0
      vertex 87.852 37.7716 0
    endloop
  endfacet
  facet normal -0.19494 0.980815 0
    outer loop
      vertex 88.6084 37.9743 0
      vertex 88.2235 37.8978 27
      vertex 88.6084 37.9743 27
    endloop
  endfacet
  facet normal -0.19494 0.980815 0
    outer loop
      vertex 88.2235 37.8978 27
      vertex 88.6084 37.9743 0
      vertex 88.2235 37.8978 0
    endloop
  endfacet
  facet normal -0.195079 -0.980788 0
    outer loop
      vertex 88.2235 0.102222 0
      vertex 88.6084 0.0256653 27
      vertex 88.2235 0.102222 27
    endloop
  endfacet
  facet normal -0.195079 -0.980788 -0
    outer loop
      vertex 88.6084 0.0256653 27
      vertex 88.2235 0.102222 0
      vertex 88.6084 0.0256653 0
    endloop
  endfacet
  facet normal -0.44211 0.896961 0
    outer loop
      vertex 87.852 37.7716 0
      vertex 87.5 37.5981 27
      vertex 87.852 37.7716 27
    endloop
  endfacet
  facet normal -0.44211 0.896961 0
    outer loop
      vertex 87.5 37.5981 27
      vertex 87.852 37.7716 0
      vertex 87.5 37.5981 0
    endloop
  endfacet
  facet normal -0.946858 0.321651 0
    outer loop
      vertex 86.1022 35.7765 0
      vertex 86.2284 36.148 27
      vertex 86.2284 36.148 0
    endloop
  endfacet
  facet normal -0.946858 0.321651 0
    outer loop
      vertex 86.2284 36.148 27
      vertex 86.1022 35.7765 0
      vertex 86.1022 35.7765 27
    endloop
  endfacet
  facet normal -0.997853 0.0654873 0
    outer loop
      vertex 86 35 0
      vertex 86.0257 35.3916 27
      vertex 86.0257 35.3916 0
    endloop
  endfacet
  facet normal -0.997853 0.0654873 0
    outer loop
      vertex 86.0257 35.3916 27
      vertex 86 35 0
      vertex 86 35 27
    endloop
  endfacet
  facet normal -0.980815 0.19494 0
    outer loop
      vertex 86.0257 35.3916 0
      vertex 86.1022 35.7765 27
      vertex 86.1022 35.7765 0
    endloop
  endfacet
  facet normal -0.980815 0.19494 0
    outer loop
      vertex 86.1022 35.7765 27
      vertex 86.0257 35.3916 0
      vertex 86.0257 35.3916 27
    endloop
  endfacet
  facet normal 0.195379 0.980728 -0
    outer loop
      vertex 159.776 37.8978 0
      vertex 159.392 37.9743 27
      vertex 159.776 37.8978 27
    endloop
  endfacet
  facet normal 0.195379 0.980728 0
    outer loop
      vertex 159.392 37.9743 27
      vertex 159.776 37.8978 0
      vertex 159.392 37.9743 0
    endloop
  endfacet
  facet normal 0.555877 0.831265 -0
    outer loop
      vertex 160.826 37.3801 0
      vertex 160.5 37.5981 27
      vertex 160.826 37.3801 27
    endloop
  endfacet
  facet normal 0.555877 0.831265 0
    outer loop
      vertex 160.5 37.5981 27
      vertex 160.826 37.3801 0
      vertex 160.5 37.5981 0
    endloop
  endfacet
  facet normal 0.659478 0.751724 -0
    outer loop
      vertex 161.121 37.1213 0
      vertex 160.826 37.3801 27
      vertex 161.121 37.1213 27
    endloop
  endfacet
  facet normal 0.659478 0.751724 0
    outer loop
      vertex 160.826 37.3801 27
      vertex 161.121 37.1213 0
      vertex 160.826 37.3801 0
    endloop
  endfacet
  facet normal -0.555523 0.831501 0
    outer loop
      vertex 87.5 37.5981 0
      vertex 87.1737 37.3801 27
      vertex 87.5 37.5981 27
    endloop
  endfacet
  facet normal -0.555523 0.831501 0
    outer loop
      vertex 87.1737 37.3801 27
      vertex 87.5 37.5981 0
      vertex 87.1737 37.3801 0
    endloop
  endfacet
  facet normal 0.0654208 0.997858 -0
    outer loop
      vertex 159.392 37.9743 0
      vertex 159 38 27
      vertex 159.392 37.9743 27
    endloop
  endfacet
  facet normal 0.0654208 0.997858 0
    outer loop
      vertex 159 38 27
      vertex 159.392 37.9743 0
      vertex 159 38 0
    endloop
  endfacet
  facet normal 0.751471 0.659766 0
    outer loop
      vertex 161.38 36.8263 27
      vertex 161.121 37.1213 0
      vertex 161.121 37.1213 27
    endloop
  endfacet
  facet normal 0.751471 0.659766 0
    outer loop
      vertex 161.121 37.1213 0
      vertex 161.38 36.8263 27
      vertex 161.38 36.8263 0
    endloop
  endfacet
  facet normal 0.831501 0.555523 0
    outer loop
      vertex 161.598 36.5 27
      vertex 161.38 36.8263 0
      vertex 161.38 36.8263 27
    endloop
  endfacet
  facet normal 0.831501 0.555523 0
    outer loop
      vertex 161.38 36.8263 0
      vertex 161.598 36.5 27
      vertex 161.598 36.5 0
    endloop
  endfacet
  facet normal 0.442237 -0.896898 0
    outer loop
      vertex 160.148 0.228361 0
      vertex 160.5 0.401923 27
      vertex 160.148 0.228361 27
    endloop
  endfacet
  facet normal 0.442237 -0.896898 0
    outer loop
      vertex 160.5 0.401923 27
      vertex 160.148 0.228361 0
      vertex 160.5 0.401923 0
    endloop
  endfacet
  facet normal 0.321124 -0.947037 0
    outer loop
      vertex 159.776 0.102222 0
      vertex 160.148 0.228361 27
      vertex 159.776 0.102222 27
    endloop
  endfacet
  facet normal 0.321124 -0.947037 0
    outer loop
      vertex 160.148 0.228361 27
      vertex 159.776 0.102222 0
      vertex 160.148 0.228361 0
    endloop
  endfacet
  facet normal 0.981056 -0.193723 0
    outer loop
      vertex 161.898 2.22354 27
      vertex 161.974 2.60842 0
      vertex 161.974 2.60842 27
    endloop
  endfacet
  facet normal 0.981056 -0.193723 0
    outer loop
      vertex 161.974 2.60842 0
      vertex 161.898 2.22354 27
      vertex 161.898 2.22354 0
    endloop
  endfacet
  facet normal 0.947037 -0.321125 0
    outer loop
      vertex 161.772 1.85195 27
      vertex 161.898 2.22354 0
      vertex 161.898 2.22354 27
    endloop
  endfacet
  facet normal 0.947037 -0.321125 0
    outer loop
      vertex 161.898 2.22354 0
      vertex 161.772 1.85195 27
      vertex 161.772 1.85195 0
    endloop
  endfacet
  facet normal 0.89643 -0.443185 0
    outer loop
      vertex 161.598 1.5 27
      vertex 161.772 1.85195 0
      vertex 161.772 1.85195 27
    endloop
  endfacet
  facet normal 0.89643 -0.443185 0
    outer loop
      vertex 161.772 1.85195 0
      vertex 161.598 1.5 27
      vertex 161.598 1.5 0
    endloop
  endfacet
  facet normal 0.555906 -0.831245 0
    outer loop
      vertex 160.5 0.401923 0
      vertex 160.826 0.61994 27
      vertex 160.5 0.401923 27
    endloop
  endfacet
  facet normal 0.555906 -0.831245 0
    outer loop
      vertex 160.826 0.61994 27
      vertex 160.5 0.401923 0
      vertex 160.826 0.61994 0
    endloop
  endfacet
  facet normal 0.195519 -0.9807 0
    outer loop
      vertex 159.392 0.0256653 0
      vertex 159.776 0.102222 27
      vertex 159.392 0.0256653 27
    endloop
  endfacet
  facet normal 0.195519 -0.9807 0
    outer loop
      vertex 159.776 0.102222 27
      vertex 159.392 0.0256653 0
      vertex 159.776 0.102222 0
    endloop
  endfacet
  facet normal 0.997803 -0.0662518 0
    outer loop
      vertex 161.974 2.60842 27
      vertex 162 3 0
      vertex 162 3 27
    endloop
  endfacet
  facet normal 0.997803 -0.0662518 0
    outer loop
      vertex 162 3 0
      vertex 161.974 2.60842 27
      vertex 161.974 2.60842 0
    endloop
  endfacet
  facet normal 0.831485 -0.555547 0
    outer loop
      vertex 161.38 1.17372 27
      vertex 161.598 1.5 0
      vertex 161.598 1.5 27
    endloop
  endfacet
  facet normal 0.831485 -0.555547 0
    outer loop
      vertex 161.598 1.5 0
      vertex 161.38 1.17372 27
      vertex 161.38 1.17372 0
    endloop
  endfacet
  facet normal 0.751516 -0.659714 0
    outer loop
      vertex 161.121 0.878679 27
      vertex 161.38 1.17372 0
      vertex 161.38 1.17372 27
    endloop
  endfacet
  facet normal 0.751516 -0.659714 0
    outer loop
      vertex 161.38 1.17372 0
      vertex 161.121 0.878679 27
      vertex 161.121 0.878679 0
    endloop
  endfacet
  facet normal -0.442237 -0.896898 0
    outer loop
      vertex 87.5 0.401923 0
      vertex 87.852 0.228361 27
      vertex 87.5 0.401923 27
    endloop
  endfacet
  facet normal -0.442237 -0.896898 -0
    outer loop
      vertex 87.852 0.228361 27
      vertex 87.5 0.401923 0
      vertex 87.852 0.228361 0
    endloop
  endfacet
  facet normal -0.751769 -0.659426 0
    outer loop
      vertex 86.8787 0.878679 0
      vertex 86.6199 1.17372 27
      vertex 86.6199 1.17372 0
    endloop
  endfacet
  facet normal -0.751769 -0.659426 0
    outer loop
      vertex 86.6199 1.17372 27
      vertex 86.8787 0.878679 0
      vertex 86.8787 0.878679 27
    endloop
  endfacet
  facet normal 0.65939 -0.751801 0
    outer loop
      vertex 160.826 0.61994 0
      vertex 161.121 0.878679 27
      vertex 160.826 0.61994 27
    endloop
  endfacet
  facet normal 0.65939 -0.751801 0
    outer loop
      vertex 161.121 0.878679 27
      vertex 160.826 0.61994 0
      vertex 161.121 0.878679 0
    endloop
  endfacet
  facet normal -0.321512 -0.946905 0
    outer loop
      vertex 87.852 0.228361 0
      vertex 88.2235 0.102222 27
      vertex 87.852 0.228361 27
    endloop
  endfacet
  facet normal -0.321512 -0.946905 -0
    outer loop
      vertex 88.2235 0.102222 27
      vertex 87.852 0.228361 0
      vertex 88.2235 0.102222 0
    endloop
  endfacet
  facet normal -0.831485 -0.555547 0
    outer loop
      vertex 86.6199 1.17372 0
      vertex 86.4019 1.5 27
      vertex 86.4019 1.5 0
    endloop
  endfacet
  facet normal -0.831485 -0.555547 0
    outer loop
      vertex 86.4019 1.5 27
      vertex 86.6199 1.17372 0
      vertex 86.6199 1.17372 27
    endloop
  endfacet
  facet normal -0.65939 -0.751801 0
    outer loop
      vertex 86.8787 0.878679 0
      vertex 87.1737 0.61994 27
      vertex 86.8787 0.878679 27
    endloop
  endfacet
  facet normal -0.65939 -0.751801 -0
    outer loop
      vertex 87.1737 0.61994 27
      vertex 86.8787 0.878679 0
      vertex 87.1737 0.61994 0
    endloop
  endfacet
  facet normal 1 -0 0
    outer loop
      vertex 88 2 25
      vertex 88 36 0
      vertex 88 36 25
    endloop
  endfacet
  facet normal 1 0 0
    outer loop
      vertex 88 36 0
      vertex 88 2 25
      vertex 88 2 0
    endloop
  endfacet
  facet normal 0 0 -1
    outer loop
      vertex 160 2 25
      vertex 124.5 7.5 25
      vertex 160 36 25
    endloop
  endfacet
  facet normal 0 0 -1
    outer loop
      vertex 88 2 25
      vertex 124.5 7.5 25
      vertex 160 2 25
    endloop
  endfacet
  facet normal -0 0 -1
    outer loop
      vertex 90 7.5 25
      vertex 88 2 25
      vertex 90 30.5 25
    endloop
  endfacet
  facet normal -0 0 -1
    outer loop
      vertex 124.5 7.5 25
      vertex 88 2 25
      vertex 90 7.5 25
    endloop
  endfacet
  facet normal 0 0 -1
    outer loop
      vertex 124.5 30.5 25
      vertex 160 36 25
      vertex 124.5 7.5 25
    endloop
  endfacet
  facet normal 0 0 -1
    outer loop
      vertex 88 36 25
      vertex 124.5 30.5 25
      vertex 90 30.5 25
    endloop
  endfacet
  facet normal 0 0 -1
    outer loop
      vertex 124.5 30.5 25
      vertex 88 36 25
      vertex 160 36 25
    endloop
  endfacet
  facet normal 0 0 -1
    outer loop
      vertex 88 36 25
      vertex 90 30.5 25
      vertex 88 2 25
    endloop
  endfacet
  facet normal -1 0 0
    outer loop
      vertex 160 2 0
      vertex 160 36 25
      vertex 160 36 0
    endloop
  endfacet
  facet normal -1 -0 0
    outer loop
      vertex 160 36 25
      vertex 160 2 0
      vertex 160 2 25
    endloop
  endfacet
  facet normal 0 1 -0
    outer loop
      vertex 160 2 0
      vertex 88 2 25
      vertex 160 2 25
    endloop
  endfacet
  facet normal 0 1 0
    outer loop
      vertex 88 2 25
      vertex 160 2 0
      vertex 88 2 0
    endloop
  endfacet
  facet normal 0 -1 0
    outer loop
      vertex 88 36 0
      vertex 160 36 25
      vertex 88 36 25
    endloop
  endfacet
  facet normal 0 -1 -0
    outer loop
      vertex 160 36 25
      vertex 88 36 0
      vertex 160 36 0
    endloop
  endfacet
  facet normal 1 -0 0
    outer loop
      vertex 90 7.5 27
      vertex 90 30.5 25
      vertex 90 30.5 27
    endloop
  endfacet
  facet normal 1 0 0
    outer loop
      vertex 90 30.5 25
      vertex 90 7.5 27
      vertex 90 7.5 25
    endloop
  endfacet
  facet normal -1 0 0
    outer loop
      vertex 124.5 7.5 25
      vertex 124.5 30.5 27
      vertex 124.5 30.5 25
    endloop
  endfacet
  facet normal -1 -0 0
    outer loop
      vertex 124.5 30.5 27
      vertex 124.5 7.5 25
      vertex 124.5 7.5 27
    endloop
  endfacet
  facet normal 0 -1 0
    outer loop
      vertex 90 30.5 25
      vertex 124.5 30.5 27
      vertex 90 30.5 27
    endloop
  endfacet
  facet normal 0 -1 -0
    outer loop
      vertex 124.5 30.5 27
      vertex 90 30.5 25
      vertex 124.5 30.5 25
    endloop
  endfacet
  facet normal 0 1 -0
    outer loop
      vertex 124.5 7.5 25
      vertex 90 7.5 27
      vertex 124.5 7.5 27
    endloop
  endfacet
  facet normal 0 1 0
    outer loop
      vertex 90 7.5 27
      vertex 124.5 7.5 25
      vertex 90 7.5 25
    endloop
  endfacet
  facet normal 0 0 -1
    outer loop
      vertex 86 11 8
      vertex 87.5 27 8
      vertex 87.5 11 8
    endloop
  endfacet
  facet normal -0 0 -1
    outer loop
      vertex 87.5 27 8
      vertex 86 11 8
      vertex 86 27 8
    endloop
  endfacet
  facet normal -1 0 0
    outer loop
      vertex 87.5 11 0
      vertex 87.5 27 8
      vertex 87.5 27 0
    endloop
  endfacet
  facet normal -1 -0 0
    outer loop
      vertex 87.5 27 8
      vertex 87.5 11 0
      vertex 87.5 11 8
    endloop
  endfacet
  facet normal 0 -1 0
    outer loop
      vertex 86 27 0
      vertex 87.5 27 8
      vertex 86 27 8
    endloop
  endfacet
  facet normal 0 -1 -0
    outer loop
      vertex 87.5 27 8
      vertex 86 27 0
      vertex 87.5 27 0
    endloop
  endfacet
  facet normal 0 1 -0
    outer loop
      vertex 87.5 11 0
      vertex 86 11 8
      vertex 87.5 11 8
    endloop
  endfacet
  facet normal 0 1 0
    outer loop
      vertex 86 11 8
      vertex 87.5 11 0
      vertex 86 11 0
    endloop
  endfacet
endsolid OpenSCAD_Model
