solid OpenSCAD_Model
  facet normal -0.980786 -0.195089 0
    outer loop
      vertex 0.102222 2.22354 0
      vertex 0.0256653 2.60842 27
      vertex 0.0256653 2.60842 0
    endloop
  endfacet
  facet normal -0.980786 -0.195089 0
    outer loop
      vertex 0.0256653 2.60842 27
      vertex 0.102222 2.22354 0
      vertex 0.102222 2.22354 27
    endloop
  endfacet
  facet normal -0.946929 -0.321442 0
    outer loop
      vertex 0.228361 1.85195 0
      vertex 0.102222 2.22354 27
      vertex 0.102222 2.22354 0
    endloop
  endfacet
  facet normal -0.946929 -0.321442 0
    outer loop
      vertex 0.102222 2.22354 27
      vertex 0.228361 1.85195 0
      vertex 0.228361 1.85195 27
    endloop
  endfacet
  facet normal -0.997859 -0.0654026 0
    outer loop
      vertex 0.0256653 2.60842 0
      vertex 0 3 27
      vertex 0 3 0
    endloop
  endfacet
  facet normal -0.997859 -0.0654026 0
    outer loop
      vertex 0 3 27
      vertex 0.0256653 2.60842 0
      vertex 0.0256653 2.60842 27
    endloop
  endfacet
  facet normal 0 -1 0
    outer loop
      vertex 3 0 0
      vertex 73 0 27
      vertex 3 0 27
    endloop
  endfacet
  facet normal 0 -1 -0
    outer loop
      vertex 73 0 27
      vertex 3 0 0
      vertex 73 0 0
    endloop
  endfacet
  facet normal 0 0 1
    outer loop
      vertex 74 36 27
      vertex 76 35 27
      vertex 75.9743 35.3916 27
    endloop
  endfacet
  facet normal 0 0 1
    outer loop
      vertex 76 35 27
      vertex 74 36 27
      vertex 76 3 27
    endloop
  endfacet
  facet normal 0 0 1
    outer loop
      vertex 74 36 27
      vertex 75.9743 35.3916 27
      vertex 75.8978 35.7765 27
    endloop
  endfacet
  facet normal 0 0 1
    outer loop
      vertex 74 2 27
      vertex 76 3 27
      vertex 74 36 27
    endloop
  endfacet
  facet normal -0 0 1
    outer loop
      vertex 74 36 27
      vertex 75.8978 35.7765 27
      vertex 75.7716 36.148 27
    endloop
  endfacet
  facet normal 0 0 1
    outer loop
      vertex 76 3 27
      vertex 74 2 27
      vertex 75.9743 2.60842 27
    endloop
  endfacet
  facet normal 0 0 1
    outer loop
      vertex 74 36 27
      vertex 75.7716 36.148 27
      vertex 75.5981 36.5 27
    endloop
  endfacet
  facet normal 0 0 1
    outer loop
      vertex 75.9743 2.60842 27
      vertex 74 2 27
      vertex 75.8978 2.22354 27
    endloop
  endfacet
  facet normal 0 0 1
    outer loop
      vertex 74 36 27
      vertex 75.5981 36.5 27
      vertex 75.3801 36.8263 27
    endloop
  endfacet
  facet normal 0 0 1
    outer loop
      vertex 75.8978 2.22354 27
      vertex 74 2 27
      vertex 75.7716 1.85195 27
    endloop
  endfacet
  facet normal 0 0 1
    outer loop
      vertex 74 36 27
      vertex 75.3801 36.8263 27
      vertex 75.1213 37.1213 27
    endloop
  endfacet
  facet normal 0 0 1
    outer loop
      vertex 75.7716 1.85195 27
      vertex 74 2 27
      vertex 75.5981 1.5 27
    endloop
  endfacet
  facet normal 0 0 1
    outer loop
      vertex 74 36 27
      vertex 75.1213 37.1213 27
      vertex 74.8263 37.3801 27
    endloop
  endfacet
  facet normal 0 0 1
    outer loop
      vertex 75.5981 1.5 27
      vertex 74 2 27
      vertex 75.3801 1.17372 27
    endloop
  endfacet
  facet normal 0 0 1
    outer loop
      vertex 74 36 27
      vertex 74.8263 37.3801 27
      vertex 74.5 37.5981 27
    endloop
  endfacet
  facet normal 0 0 1
    outer loop
      vertex 75.3801 1.17372 27
      vertex 74 2 27
      vertex 75.1213 0.878679 27
    endloop
  endfacet
  facet normal 0 0 1
    outer loop
      vertex 74 36 27
      vertex 74.5 37.5981 27
      vertex 74.148 37.7716 27
    endloop
  endfacet
  facet normal 0 0 1
    outer loop
      vertex 75.1213 0.878679 27
      vertex 74 2 27
      vertex 74.8263 0.61994 27
    endloop
  endfacet
  facet normal 0 0 1
    outer loop
      vertex 74.8263 0.61994 27
      vertex 74 2 27
      vertex 74.5 0.401923 27
    endloop
  endfacet
  facet normal 0 0 1
    outer loop
      vertex 73.7765 37.8978 27
      vertex 74 36 27
      vertex 74.148 37.7716 27
    endloop
  endfacet
  facet normal 0 0 1
    outer loop
      vertex 73.3916 37.9743 27
      vertex 74 36 27
      vertex 73.7765 37.8978 27
    endloop
  endfacet
  facet normal 0 0 1
    outer loop
      vertex 73 38 27
      vertex 74 36 27
      vertex 73.3916 37.9743 27
    endloop
  endfacet
  facet normal -0 0 1
    outer loop
      vertex 3 38 27
      vertex 74 36 27
      vertex 73 38 27
    endloop
  endfacet
  facet normal 0 0 1
    outer loop
      vertex 2 36 27
      vertex 3 38 27
      vertex 2.60842 37.9743 27
    endloop
  endfacet
  facet normal 0 0 1
    outer loop
      vertex 2 36 27
      vertex 2.60842 37.9743 27
      vertex 2.22354 37.8978 27
    endloop
  endfacet
  facet normal 0 0 1
    outer loop
      vertex 3 38 27
      vertex 2 36 27
      vertex 74 36 27
    endloop
  endfacet
  facet normal -0 0 1
    outer loop
      vertex 1.5 37.5981 27
      vertex 2 36 27
      vertex 1.85195 37.7716 27
    endloop
  endfacet
  facet normal -0 0 1
    outer loop
      vertex 1.85195 37.7716 27
      vertex 2 36 27
      vertex 2.22354 37.8978 27
    endloop
  endfacet
  facet normal 0 0 1
    outer loop
      vertex 74.5 0.401923 27
      vertex 74 2 27
      vertex 74.148 0.228361 27
    endloop
  endfacet
  facet normal 0 0 1
    outer loop
      vertex 74 2 27
      vertex 73.7765 0.102222 27
      vertex 74.148 0.228361 27
    endloop
  endfacet
  facet normal 0 0 1
    outer loop
      vertex 74 2 27
      vertex 73.3916 0.0256653 27
      vertex 73.7765 0.102222 27
    endloop
  endfacet
  facet normal 0 0 1
    outer loop
      vertex 74 2 27
      vertex 73 0 27
      vertex 73.3916 0.0256653 27
    endloop
  endfacet
  facet normal 0 0 1
    outer loop
      vertex 74 2 27
      vertex 3 0 27
      vertex 73 0 27
    endloop
  endfacet
  facet normal -0 0 1
    outer loop
      vertex 2 2 27
      vertex 3 0 27
      vertex 74 2 27
    endloop
  endfacet
  facet normal 0 0 1
    outer loop
      vertex 3 0 27
      vertex 2 2 27
      vertex 2.60842 0.0256653 27
    endloop
  endfacet
  facet normal 0 0 1
    outer loop
      vertex 2.60842 0.0256653 27
      vertex 2 2 27
      vertex 2.22354 0.102222 27
    endloop
  endfacet
  facet normal 0 0 1
    outer loop
      vertex 2 2 27
      vertex 1.85195 0.228361 27
      vertex 2.22354 0.102222 27
    endloop
  endfacet
  facet normal 0 0 1
    outer loop
      vertex 2 36 27
      vertex 0 35 27
      vertex 2 2 27
    endloop
  endfacet
  facet normal -0 0 1
    outer loop
      vertex 1.17372 37.3801 27
      vertex 2 36 27
      vertex 1.5 37.5981 27
    endloop
  endfacet
  facet normal -0 0 1
    outer loop
      vertex 0 3 27
      vertex 2 2 27
      vertex 0 35 27
    endloop
  endfacet
  facet normal -0 0 1
    outer loop
      vertex 0.878679 37.1213 27
      vertex 2 36 27
      vertex 1.17372 37.3801 27
    endloop
  endfacet
  facet normal -0 -0 1
    outer loop
      vertex 0.0256653 2.60842 27
      vertex 2 2 27
      vertex 0 3 27
    endloop
  endfacet
  facet normal -0 0 1
    outer loop
      vertex 0.61994 36.8263 27
      vertex 2 36 27
      vertex 0.878679 37.1213 27
    endloop
  endfacet
  facet normal 0 0 1
    outer loop
      vertex 2 2 27
      vertex 1.5 0.401923 27
      vertex 1.85195 0.228361 27
    endloop
  endfacet
  facet normal -0 0 1
    outer loop
      vertex 0.401923 36.5 27
      vertex 2 36 27
      vertex 0.61994 36.8263 27
    endloop
  endfacet
  facet normal 0 0 1
    outer loop
      vertex 2 2 27
      vertex 1.17372 0.61994 27
      vertex 1.5 0.401923 27
    endloop
  endfacet
  facet normal -0 0 1
    outer loop
      vertex 0.228361 36.148 27
      vertex 2 36 27
      vertex 0.401923 36.5 27
    endloop
  endfacet
  facet normal 0 0 1
    outer loop
      vertex 2 2 27
      vertex 0.878679 0.878679 27
      vertex 1.17372 0.61994 27
    endloop
  endfacet
  facet normal 0 0 1
    outer loop
      vertex 0.102222 35.7765 27
      vertex 2 36 27
      vertex 0.228361 36.148 27
    endloop
  endfacet
  facet normal 0 0 1
    outer loop
      vertex 2 2 27
      vertex 0.61994 1.17372 27
      vertex 0.878679 0.878679 27
    endloop
  endfacet
  facet normal 0 0 1
    outer loop
      vertex 0.0256653 35.3916 27
      vertex 2 36 27
      vertex 0.102222 35.7765 27
    endloop
  endfacet
  facet normal 0 0 1
    outer loop
      vertex 2 2 27
      vertex 0.401923 1.5 27
      vertex 0.61994 1.17372 27
    endloop
  endfacet
  facet normal 0 0 1
    outer loop
      vertex 2 36 27
      vertex 0.0256653 35.3916 27
      vertex 0 35 27
    endloop
  endfacet
  facet normal 0 0 1
    outer loop
      vertex 2 2 27
      vertex 0.228361 1.85195 27
      vertex 0.401923 1.5 27
    endloop
  endfacet
  facet normal 0 0 1
    outer loop
      vertex 2 2 27
      vertex 0.102222 2.22354 27
      vertex 0.228361 1.85195 27
    endloop
  endfacet
  facet normal 0 0 1
    outer loop
      vertex 2 2 27
      vertex 0.0256653 2.60842 27
      vertex 0.102222 2.22354 27
    endloop
  endfacet
  facet normal 1 -0 0
    outer loop
      vertex 76 3 27
      vertex 76 35 0
      vertex 76 35 27
    endloop
  endfacet
  facet normal 1 0 0
    outer loop
      vertex 76 35 0
      vertex 76 3 27
      vertex 76 3 0
    endloop
  endfacet
  facet normal -0.896873 -0.442288 0
    outer loop
      vertex 0.401923 1.5 0
      vertex 0.228361 1.85195 27
      vertex 0.228361 1.85195 0
    endloop
  endfacet
  facet normal -0.896873 -0.442288 0
    outer loop
      vertex 0.228361 1.85195 27
      vertex 0.401923 1.5 0
      vertex 0.401923 1.5 27
    endloop
  endfacet
  facet normal -1 0 0
    outer loop
      vertex 0 35 0
      vertex 0 25 14
      vertex 0 35 27
    endloop
  endfacet
  facet normal -1 0 0
    outer loop
      vertex 0 35 0
      vertex 0 13 14
      vertex 0 25 14
    endloop
  endfacet
  facet normal -1 0 0
    outer loop
      vertex 0 3 27
      vertex 0 13 14
      vertex 0 3 0
    endloop
  endfacet
  facet normal -1 0 0
    outer loop
      vertex 0 3 0
      vertex 0 13 14
      vertex 0 35 0
    endloop
  endfacet
  facet normal -1 0 0
    outer loop
      vertex 0 25 22
      vertex 0 35 27
      vertex 0 25 14
    endloop
  endfacet
  facet normal -1 0 0
    outer loop
      vertex 0 13 22
      vertex 0 35 27
      vertex 0 25 22
    endloop
  endfacet
  facet normal -1 0 0
    outer loop
      vertex 0 13 22
      vertex 0 3 27
      vertex 0 35 27
    endloop
  endfacet
  facet normal -1 0 0
    outer loop
      vertex 0 13 14
      vertex 0 3 27
      vertex 0 13 22
    endloop
  endfacet
  facet normal 0 0 -1
    outer loop
      vertex 73 0 0
      vertex 76 3 0
      vertex 75.9743 2.60842 0
    endloop
  endfacet
  facet normal -0 0 -1
    outer loop
      vertex 76 3 0
      vertex 73 0 0
      vertex 76 35 0
    endloop
  endfacet
  facet normal 0 0 -1
    outer loop
      vertex 73 0 0
      vertex 75.9743 2.60842 0
      vertex 75.8978 2.22354 0
    endloop
  endfacet
  facet normal 0 0 -1
    outer loop
      vertex 73 38 0
      vertex 76 35 0
      vertex 73 0 0
    endloop
  endfacet
  facet normal 0 0 -1
    outer loop
      vertex 73 0 0
      vertex 75.8978 2.22354 0
      vertex 75.7716 1.85195 0
    endloop
  endfacet
  facet normal 0 0 -1
    outer loop
      vertex 76 35 0
      vertex 73 38 0
      vertex 75.9743 35.3916 0
    endloop
  endfacet
  facet normal 0 0 -1
    outer loop
      vertex 73 0 0
      vertex 75.7716 1.85195 0
      vertex 75.5981 1.5 0
    endloop
  endfacet
  facet normal 0 0 -1
    outer loop
      vertex 75.9743 35.3916 0
      vertex 73 38 0
      vertex 75.8978 35.7765 0
    endloop
  endfacet
  facet normal 0 0 -1
    outer loop
      vertex 73 0 0
      vertex 75.5981 1.5 0
      vertex 75.3801 1.17372 0
    endloop
  endfacet
  facet normal 0 0 -1
    outer loop
      vertex 75.8978 35.7765 0
      vertex 73 38 0
      vertex 75.7716 36.148 0
    endloop
  endfacet
  facet normal 0 0 -1
    outer loop
      vertex 73 0 0
      vertex 75.3801 1.17372 0
      vertex 75.1213 0.878679 0
    endloop
  endfacet
  facet normal 0 0 -1
    outer loop
      vertex 75.7716 36.148 0
      vertex 73 38 0
      vertex 75.5981 36.5 0
    endloop
  endfacet
  facet normal 0 0 -1
    outer loop
      vertex 73 0 0
      vertex 75.1213 0.878679 0
      vertex 74.8263 0.61994 0
    endloop
  endfacet
  facet normal 0 0 -1
    outer loop
      vertex 75.5981 36.5 0
      vertex 73 38 0
      vertex 75.3801 36.8263 0
    endloop
  endfacet
  facet normal 0 0 -1
    outer loop
      vertex 73 0 0
      vertex 74.8263 0.61994 0
      vertex 74.5 0.401923 0
    endloop
  endfacet
  facet normal 0 0 -1
    outer loop
      vertex 75.3801 36.8263 0
      vertex 73 38 0
      vertex 75.1213 37.1213 0
    endloop
  endfacet
  facet normal 0 0 -1
    outer loop
      vertex 73 0 0
      vertex 74.5 0.401923 0
      vertex 74.148 0.228361 0
    endloop
  endfacet
  facet normal 0 0 -1
    outer loop
      vertex 75.1213 37.1213 0
      vertex 73 38 0
      vertex 74.8263 37.3801 0
    endloop
  endfacet
  facet normal 0 0 -1
    outer loop
      vertex 73 0 0
      vertex 74.148 0.228361 0
      vertex 73.7765 0.102222 0
    endloop
  endfacet
  facet normal 0 0 -1
    outer loop
      vertex 74.8263 37.3801 0
      vertex 73 38 0
      vertex 74.5 37.5981 0
    endloop
  endfacet
  facet normal 0 0 -1
    outer loop
      vertex 73 0 0
      vertex 73.7765 0.102222 0
      vertex 73.3916 0.0256653 0
    endloop
  endfacet
  facet normal 0 0 -1
    outer loop
      vertex 74.5 37.5981 0
      vertex 73 38 0
      vertex 74.148 37.7716 0
    endloop
  endfacet
  facet normal 0 0 -1
    outer loop
      vertex 74.148 37.7716 0
      vertex 73 38 0
      vertex 73.7765 37.8978 0
    endloop
  endfacet
  facet normal 0 0 -1
    outer loop
      vertex 73.7765 37.8978 0
      vertex 73 38 0
      vertex 73.3916 37.9743 0
    endloop
  endfacet
  facet normal 0 0 -1
    outer loop
      vertex 3 0 0
      vertex 73 38 0
      vertex 73 0 0
    endloop
  endfacet
  facet normal 0 0 -1
    outer loop
      vertex 3 0 0
      vertex 3 38 0
      vertex 73 38 0
    endloop
  endfacet
  facet normal 0 0 -1
    outer loop
      vertex 0 3 0
      vertex 3 0 0
      vertex 2.60842 0.0256653 0
    endloop
  endfacet
  facet normal 0 0 -1
    outer loop
      vertex 3 0 0
      vertex 0 3 0
      vertex 3 38 0
    endloop
  endfacet
  facet normal 0 0 -1
    outer loop
      vertex 0 3 0
      vertex 2.60842 0.0256653 0
      vertex 2.22354 0.102222 0
    endloop
  endfacet
  facet normal 0 0 -1
    outer loop
      vertex 0 35 0
      vertex 3 38 0
      vertex 0 3 0
    endloop
  endfacet
  facet normal 0 0 -1
    outer loop
      vertex 0 3 0
      vertex 2.22354 0.102222 0
      vertex 1.85195 0.228361 0
    endloop
  endfacet
  facet normal 0 0 -1
    outer loop
      vertex 3 38 0
      vertex 0 35 0
      vertex 2.60842 37.9743 0
    endloop
  endfacet
  facet normal 0 0 -1
    outer loop
      vertex 0 3 0
      vertex 1.85195 0.228361 0
      vertex 1.5 0.401923 0
    endloop
  endfacet
  facet normal 0 0 -1
    outer loop
      vertex 2.60842 37.9743 0
      vertex 0 35 0
      vertex 2.22354 37.8978 0
    endloop
  endfacet
  facet normal 0 0 -1
    outer loop
      vertex 0 3 0
      vertex 1.5 0.401923 0
      vertex 1.17372 0.61994 0
    endloop
  endfacet
  facet normal 0 0 -1
    outer loop
      vertex 2.22354 37.8978 0
      vertex 0 35 0
      vertex 1.85195 37.7716 0
    endloop
  endfacet
  facet normal 0 0 -1
    outer loop
      vertex 0 3 0
      vertex 1.17372 0.61994 0
      vertex 0.878679 0.878679 0
    endloop
  endfacet
  facet normal 0 0 -1
    outer loop
      vertex 1.85195 37.7716 0
      vertex 0 35 0
      vertex 1.5 37.5981 0
    endloop
  endfacet
  facet normal 0 0 -1
    outer loop
      vertex 0 3 0
      vertex 0.878679 0.878679 0
      vertex 0.61994 1.17372 0
    endloop
  endfacet
  facet normal 0 0 -1
    outer loop
      vertex 1.5 37.5981 0
      vertex 0 35 0
      vertex 1.17372 37.3801 0
    endloop
  endfacet
  facet normal 0 0 -1
    outer loop
      vertex 0 3 0
      vertex 0.61994 1.17372 0
      vertex 0.401923 1.5 0
    endloop
  endfacet
  facet normal 0 0 -1
    outer loop
      vertex 1.17372 37.3801 0
      vertex 0 35 0
      vertex 0.878679 37.1213 0
    endloop
  endfacet
  facet normal 0 0 -1
    outer loop
      vertex 0 3 0
      vertex 0.401923 1.5 0
      vertex 0.228361 1.85195 0
    endloop
  endfacet
  facet normal 0 0 -1
    outer loop
      vertex 0.878679 37.1213 0
      vertex 0 35 0
      vertex 0.61994 36.8263 0
    endloop
  endfacet
  facet normal 0 0 -1
    outer loop
      vertex 0 3 0
      vertex 0.228361 1.85195 0
      vertex 0.102222 2.22354 0
    endloop
  endfacet
  facet normal 0 0 -1
    outer loop
      vertex 0.61994 36.8263 0
      vertex 0 35 0
      vertex 0.401923 36.5 0
    endloop
  endfacet
  facet normal 0 0 -1
    outer loop
      vertex 0 3 0
      vertex 0.102222 2.22354 0
      vertex 0.0256653 2.60842 0
    endloop
  endfacet
  facet normal 0 0 -1
    outer loop
      vertex 0.401923 36.5 0
      vertex 0 35 0
      vertex 0.228361 36.148 0
    endloop
  endfacet
  facet normal 0 0 -1
    outer loop
      vertex 0.228361 36.148 0
      vertex 0 35 0
      vertex 0.102222 35.7765 0
    endloop
  endfacet
  facet normal 0 0 -1
    outer loop
      vertex 0.102222 35.7765 0
      vertex 0 35 0
      vertex 0.0256653 35.3916 0
    endloop
  endfacet
  facet normal 0.0654873 0.997853 -0
    outer loop
      vertex 73.3916 37.9743 0
      vertex 73 38 27
      vertex 73.3916 37.9743 27
    endloop
  endfacet
  facet normal 0.0654873 0.997853 0
    outer loop
      vertex 73 38 27
      vertex 73.3916 37.9743 0
      vertex 73 38 0
    endloop
  endfacet
  facet normal 0 1 -0
    outer loop
      vertex 73 38 0
      vertex 3 38 27
      vertex 73 38 27
    endloop
  endfacet
  facet normal 0 1 0
    outer loop
      vertex 3 38 27
      vertex 73 38 0
      vertex 3 38 0
    endloop
  endfacet
  facet normal -0.321582 0.946882 0
    outer loop
      vertex 2.22354 37.8978 0
      vertex 1.85195 37.7716 27
      vertex 2.22354 37.8978 27
    endloop
  endfacet
  facet normal -0.321582 0.946882 0
    outer loop
      vertex 1.85195 37.7716 27
      vertex 2.22354 37.8978 0
      vertex 1.85195 37.7716 0
    endloop
  endfacet
  facet normal 0.980815 0.19494 0
    outer loop
      vertex 75.9743 35.3916 27
      vertex 75.8978 35.7765 0
      vertex 75.8978 35.7765 27
    endloop
  endfacet
  facet normal 0.980815 0.19494 0
    outer loop
      vertex 75.8978 35.7765 0
      vertex 75.9743 35.3916 27
      vertex 75.9743 35.3916 0
    endloop
  endfacet
  facet normal 0.997853 0.0654873 0
    outer loop
      vertex 76 35 27
      vertex 75.9743 35.3916 0
      vertex 75.9743 35.3916 27
    endloop
  endfacet
  facet normal 0.997853 0.0654873 0
    outer loop
      vertex 75.9743 35.3916 0
      vertex 76 35 27
      vertex 76 35 0
    endloop
  endfacet
  facet normal 0.0653993 -0.997859 0
    outer loop
      vertex 73 0 0
      vertex 73.3916 0.0256653 27
      vertex 73 0 27
    endloop
  endfacet
  facet normal 0.0653993 -0.997859 0
    outer loop
      vertex 73.3916 0.0256653 27
      vertex 73 0 0
      vertex 73.3916 0.0256653 0
    endloop
  endfacet
  facet normal -0.0654026 -0.997859 0
    outer loop
      vertex 2.60842 0.0256653 0
      vertex 3 0 27
      vertex 2.60842 0.0256653 27
    endloop
  endfacet
  facet normal -0.0654026 -0.997859 -0
    outer loop
      vertex 3 0 27
      vertex 2.60842 0.0256653 0
      vertex 3 0 0
    endloop
  endfacet
  facet normal -0.831481 0.555553 0
    outer loop
      vertex 0.401923 36.5 0
      vertex 0.61994 36.8263 27
      vertex 0.61994 36.8263 0
    endloop
  endfacet
  facet normal -0.831481 0.555553 0
    outer loop
      vertex 0.61994 36.8263 27
      vertex 0.401923 36.5 0
      vertex 0.401923 36.5 27
    endloop
  endfacet
  facet normal -0.997859 0.0653993 0
    outer loop
      vertex 0 35 0
      vertex 0.0256653 35.3916 27
      vertex 0.0256653 35.3916 0
    endloop
  endfacet
  facet normal -0.997859 0.0653993 0
    outer loop
      vertex 0.0256653 35.3916 27
      vertex 0 35 0
      vertex 0 35 27
    endloop
  endfacet
  facet normal 0.659478 0.751724 -0
    outer loop
      vertex 75.1213 37.1213 0
      vertex 74.8263 37.3801 27
      vertex 75.1213 37.1213 27
    endloop
  endfacet
  facet normal 0.659478 0.751724 0
    outer loop
      vertex 74.8263 37.3801 27
      vertex 75.1213 37.1213 0
      vertex 74.8263 37.3801 0
    endloop
  endfacet
  facet normal 0.997853 -0.0654906 0
    outer loop
      vertex 75.9743 2.60842 27
      vertex 76 3 0
      vertex 76 3 27
    endloop
  endfacet
  facet normal 0.997853 -0.0654906 0
    outer loop
      vertex 76 3 0
      vertex 75.9743 2.60842 27
      vertex 75.9743 2.60842 0
    endloop
  endfacet
  facet normal 0.321512 -0.946905 0
    outer loop
      vertex 73.7765 0.102222 0
      vertex 74.148 0.228361 27
      vertex 73.7765 0.102222 27
    endloop
  endfacet
  facet normal 0.321512 -0.946905 0
    outer loop
      vertex 74.148 0.228361 27
      vertex 73.7765 0.102222 0
      vertex 74.148 0.228361 0
    endloop
  endfacet
  facet normal -0.751801 0.65939 0
    outer loop
      vertex 0.61994 36.8263 0
      vertex 0.878679 37.1213 27
      vertex 0.878679 37.1213 0
    endloop
  endfacet
  facet normal -0.751801 0.65939 0
    outer loop
      vertex 0.878679 37.1213 27
      vertex 0.61994 36.8263 0
      vertex 0.61994 36.8263 27
    endloop
  endfacet
  facet normal -0.659426 0.751769 0
    outer loop
      vertex 1.17372 37.3801 0
      vertex 0.878679 37.1213 27
      vertex 1.17372 37.3801 27
    endloop
  endfacet
  facet normal -0.659426 0.751769 0
    outer loop
      vertex 0.878679 37.1213 27
      vertex 1.17372 37.3801 0
      vertex 0.878679 37.1213 0
    endloop
  endfacet
  facet normal -0.44216 0.896936 0
    outer loop
      vertex 1.85195 37.7716 0
      vertex 1.5 37.5981 27
      vertex 1.85195 37.7716 27
    endloop
  endfacet
  facet normal -0.44216 0.896936 0
    outer loop
      vertex 1.5 37.5981 27
      vertex 1.85195 37.7716 0
      vertex 1.5 37.5981 0
    endloop
  endfacet
  facet normal -0.946905 0.321512 0
    outer loop
      vertex 0.102222 35.7765 0
      vertex 0.228361 36.148 27
      vertex 0.228361 36.148 0
    endloop
  endfacet
  facet normal -0.946905 0.321512 0
    outer loop
      vertex 0.228361 36.148 27
      vertex 0.102222 35.7765 0
      vertex 0.102222 35.7765 27
    endloop
  endfacet
  facet normal -0.896898 0.442237 0
    outer loop
      vertex 0.228361 36.148 0
      vertex 0.401923 36.5 27
      vertex 0.401923 36.5 0
    endloop
  endfacet
  facet normal -0.896898 0.442237 0
    outer loop
      vertex 0.401923 36.5 27
      vertex 0.228361 36.148 0
      vertex 0.228361 36.148 27
    endloop
  endfacet
  facet normal -0.980788 0.195079 0
    outer loop
      vertex 0.0256653 35.3916 0
      vertex 0.102222 35.7765 27
      vertex 0.102222 35.7765 0
    endloop
  endfacet
  facet normal -0.980788 0.195079 0
    outer loop
      vertex 0.102222 35.7765 27
      vertex 0.0256653 35.3916 0
      vertex 0.0256653 35.3916 27
    endloop
  endfacet
  facet normal 0.321651 0.946858 -0
    outer loop
      vertex 74.148 37.7716 0
      vertex 73.7765 37.8978 27
      vertex 74.148 37.7716 27
    endloop
  endfacet
  facet normal 0.321651 0.946858 0
    outer loop
      vertex 73.7765 37.8978 27
      vertex 74.148 37.7716 0
      vertex 73.7765 37.8978 0
    endloop
  endfacet
  facet normal 0.44211 0.896961 -0
    outer loop
      vertex 74.5 37.5981 0
      vertex 74.148 37.7716 27
      vertex 74.5 37.5981 27
    endloop
  endfacet
  facet normal 0.44211 0.896961 0
    outer loop
      vertex 74.148 37.7716 27
      vertex 74.5 37.5981 0
      vertex 74.148 37.7716 0
    endloop
  endfacet
  facet normal 0.555523 0.831501 -0
    outer loop
      vertex 74.8263 37.3801 0
      vertex 74.5 37.5981 27
      vertex 74.8263 37.3801 27
    endloop
  endfacet
  facet normal 0.555523 0.831501 0
    outer loop
      vertex 74.5 37.5981 27
      vertex 74.8263 37.3801 0
      vertex 74.5 37.5981 0
    endloop
  endfacet
  facet normal 0.896961 0.44211 0
    outer loop
      vertex 75.7716 36.148 27
      vertex 75.5981 36.5 0
      vertex 75.5981 36.5 27
    endloop
  endfacet
  facet normal 0.896961 0.44211 0
    outer loop
      vertex 75.5981 36.5 0
      vertex 75.7716 36.148 27
      vertex 75.7716 36.148 0
    endloop
  endfacet
  facet normal 0.946858 0.321651 0
    outer loop
      vertex 75.8978 35.7765 27
      vertex 75.7716 36.148 0
      vertex 75.7716 36.148 27
    endloop
  endfacet
  facet normal 0.946858 0.321651 0
    outer loop
      vertex 75.7716 36.148 0
      vertex 75.8978 35.7765 27
      vertex 75.8978 35.7765 0
    endloop
  endfacet
  facet normal -0.19495 0.980813 0
    outer loop
      vertex 2.60842 37.9743 0
      vertex 2.22354 37.8978 27
      vertex 2.60842 37.9743 27
    endloop
  endfacet
  facet normal -0.19495 0.980813 0
    outer loop
      vertex 2.22354 37.8978 27
      vertex 2.60842 37.9743 0
      vertex 2.22354 37.8978 0
    endloop
  endfacet
  facet normal -0.0654906 0.997853 0
    outer loop
      vertex 3 38 0
      vertex 2.60842 37.9743 27
      vertex 3 38 27
    endloop
  endfacet
  facet normal -0.0654906 0.997853 0
    outer loop
      vertex 2.60842 37.9743 27
      vertex 3 38 0
      vertex 2.60842 37.9743 0
    endloop
  endfacet
  facet normal 0.442237 -0.896898 0
    outer loop
      vertex 74.148 0.228361 0
      vertex 74.5 0.401923 27
      vertex 74.148 0.228361 27
    endloop
  endfacet
  facet normal 0.442237 -0.896898 0
    outer loop
      vertex 74.5 0.401923 27
      vertex 74.148 0.228361 0
      vertex 74.5 0.401923 0
    endloop
  endfacet
  facet normal 0.751769 -0.659426 0
    outer loop
      vertex 75.1213 0.878679 27
      vertex 75.3801 1.17372 0
      vertex 75.3801 1.17372 27
    endloop
  endfacet
  facet normal 0.751769 -0.659426 0
    outer loop
      vertex 75.3801 1.17372 0
      vertex 75.1213 0.878679 27
      vertex 75.1213 0.878679 0
    endloop
  endfacet
  facet normal 0.980813 -0.19495 0
    outer loop
      vertex 75.8978 2.22354 27
      vertex 75.9743 2.60842 0
      vertex 75.9743 2.60842 27
    endloop
  endfacet
  facet normal 0.980813 -0.19495 0
    outer loop
      vertex 75.9743 2.60842 0
      vertex 75.8978 2.22354 27
      vertex 75.8978 2.22354 0
    endloop
  endfacet
  facet normal -0.555577 -0.831465 0
    outer loop
      vertex 1.17372 0.61994 0
      vertex 1.5 0.401923 27
      vertex 1.17372 0.61994 27
    endloop
  endfacet
  facet normal -0.555577 -0.831465 -0
    outer loop
      vertex 1.5 0.401923 27
      vertex 1.17372 0.61994 0
      vertex 1.5 0.401923 0
    endloop
  endfacet
  facet normal -0.555547 0.831485 0
    outer loop
      vertex 1.5 37.5981 0
      vertex 1.17372 37.3801 27
      vertex 1.5 37.5981 27
    endloop
  endfacet
  facet normal -0.555547 0.831485 0
    outer loop
      vertex 1.17372 37.3801 27
      vertex 1.5 37.5981 0
      vertex 1.17372 37.3801 0
    endloop
  endfacet
  facet normal 0.19494 0.980815 -0
    outer loop
      vertex 73.7765 37.8978 0
      vertex 73.3916 37.9743 27
      vertex 73.7765 37.8978 27
    endloop
  endfacet
  facet normal 0.19494 0.980815 0
    outer loop
      vertex 73.3916 37.9743 27
      vertex 73.7765 37.8978 0
      vertex 73.3916 37.9743 0
    endloop
  endfacet
  facet normal 0.751724 0.659478 0
    outer loop
      vertex 75.3801 36.8263 27
      vertex 75.1213 37.1213 0
      vertex 75.1213 37.1213 27
    endloop
  endfacet
  facet normal 0.751724 0.659478 0
    outer loop
      vertex 75.1213 37.1213 0
      vertex 75.3801 36.8263 27
      vertex 75.3801 36.8263 0
    endloop
  endfacet
  facet normal 0.831501 0.555523 0
    outer loop
      vertex 75.5981 36.5 27
      vertex 75.3801 36.8263 0
      vertex 75.3801 36.8263 27
    endloop
  endfacet
  facet normal 0.831501 0.555523 0
    outer loop
      vertex 75.3801 36.8263 0
      vertex 75.5981 36.5 27
      vertex 75.5981 36.5 0
    endloop
  endfacet
  facet normal 0.946882 -0.321582 0
    outer loop
      vertex 75.7716 1.85195 27
      vertex 75.8978 2.22354 0
      vertex 75.8978 2.22354 27
    endloop
  endfacet
  facet normal 0.946882 -0.321582 0
    outer loop
      vertex 75.8978 2.22354 0
      vertex 75.7716 1.85195 27
      vertex 75.7716 1.85195 0
    endloop
  endfacet
  facet normal 0.896936 -0.44216 0
    outer loop
      vertex 75.5981 1.5 27
      vertex 75.7716 1.85195 0
      vertex 75.7716 1.85195 27
    endloop
  endfacet
  facet normal 0.896936 -0.44216 0
    outer loop
      vertex 75.7716 1.85195 0
      vertex 75.5981 1.5 27
      vertex 75.5981 1.5 0
    endloop
  endfacet
  facet normal -0.195089 -0.980786 0
    outer loop
      vertex 2.22354 0.102222 0
      vertex 2.60842 0.0256653 27
      vertex 2.22354 0.102222 27
    endloop
  endfacet
  facet normal -0.195089 -0.980786 -0
    outer loop
      vertex 2.60842 0.0256653 27
      vertex 2.22354 0.102222 0
      vertex 2.60842 0.0256653 0
    endloop
  endfacet
  facet normal -0.442288 -0.896873 0
    outer loop
      vertex 1.5 0.401923 0
      vertex 1.85195 0.228361 27
      vertex 1.5 0.401923 27
    endloop
  endfacet
  facet normal -0.442288 -0.896873 -0
    outer loop
      vertex 1.85195 0.228361 27
      vertex 1.5 0.401923 0
      vertex 1.85195 0.228361 0
    endloop
  endfacet
  facet normal -0.659339 -0.751846 0
    outer loop
      vertex 0.878679 0.878679 0
      vertex 1.17372 0.61994 27
      vertex 0.878679 0.878679 27
    endloop
  endfacet
  facet normal -0.659339 -0.751846 -0
    outer loop
      vertex 1.17372 0.61994 27
      vertex 0.878679 0.878679 0
      vertex 1.17372 0.61994 0
    endloop
  endfacet
  facet normal 0.195079 -0.980788 0
    outer loop
      vertex 73.3916 0.0256653 0
      vertex 73.7765 0.102222 27
      vertex 73.3916 0.0256653 27
    endloop
  endfacet
  facet normal 0.195079 -0.980788 0
    outer loop
      vertex 73.7765 0.102222 27
      vertex 73.3916 0.0256653 0
      vertex 73.7765 0.102222 0
    endloop
  endfacet
  facet normal 0.555553 -0.831481 0
    outer loop
      vertex 74.5 0.401923 0
      vertex 74.8263 0.61994 27
      vertex 74.5 0.401923 27
    endloop
  endfacet
  facet normal 0.555553 -0.831481 0
    outer loop
      vertex 74.8263 0.61994 27
      vertex 74.5 0.401923 0
      vertex 74.8263 0.61994 0
    endloop
  endfacet
  facet normal 0.831485 -0.555547 0
    outer loop
      vertex 75.3801 1.17372 27
      vertex 75.5981 1.5 0
      vertex 75.5981 1.5 27
    endloop
  endfacet
  facet normal 0.831485 -0.555547 0
    outer loop
      vertex 75.5981 1.5 0
      vertex 75.3801 1.17372 27
      vertex 75.3801 1.17372 0
    endloop
  endfacet
  facet normal -0.321442 -0.946929 0
    outer loop
      vertex 1.85195 0.228361 0
      vertex 2.22354 0.102222 27
      vertex 1.85195 0.228361 27
    endloop
  endfacet
  facet normal -0.321442 -0.946929 -0
    outer loop
      vertex 2.22354 0.102222 27
      vertex 1.85195 0.228361 0
      vertex 2.22354 0.102222 0
    endloop
  endfacet
  facet normal -0.751846 -0.659339 0
    outer loop
      vertex 0.878679 0.878679 0
      vertex 0.61994 1.17372 27
      vertex 0.61994 1.17372 0
    endloop
  endfacet
  facet normal -0.751846 -0.659339 0
    outer loop
      vertex 0.61994 1.17372 27
      vertex 0.878679 0.878679 0
      vertex 0.878679 0.878679 27
    endloop
  endfacet
  facet normal 0.65939 -0.751801 0
    outer loop
      vertex 74.8263 0.61994 0
      vertex 75.1213 0.878679 27
      vertex 74.8263 0.61994 27
    endloop
  endfacet
  facet normal 0.65939 -0.751801 0
    outer loop
      vertex 75.1213 0.878679 27
      vertex 74.8263 0.61994 0
      vertex 75.1213 0.878679 0
    endloop
  endfacet
  facet normal -0.831465 -0.555577 0
    outer loop
      vertex 0.61994 1.17372 0
      vertex 0.401923 1.5 27
      vertex 0.401923 1.5 0
    endloop
  endfacet
  facet normal -0.831465 -0.555577 0
    outer loop
      vertex 0.401923 1.5 27
      vertex 0.61994 1.17372 0
      vertex 0.61994 1.17372 27
    endloop
  endfacet
  facet normal 1 0 0
    outer loop
      vertex 2 25 14
      vertex 2 36 27
      vertex 2 25 22
    endloop
  endfacet
  facet normal 1 0 0
    outer loop
      vertex 2 36 27
      vertex 2 13 22
      vertex 2 25 22
    endloop
  endfacet
  facet normal 1 0 0
    outer loop
      vertex 2 13 22
      vertex 2 2 27
      vertex 2 13 14
    endloop
  endfacet
  facet normal 1 -0 0
    outer loop
      vertex 2 2 27
      vertex 2 13 22
      vertex 2 36 27
    endloop
  endfacet
  facet normal 1 0 0
    outer loop
      vertex 2 36 27
      vertex 2 25 14
      vertex 2 36 2
    endloop
  endfacet
  facet normal 1 -0 0
    outer loop
      vertex 2 13 14
      vertex 2 36 2
      vertex 2 25 14
    endloop
  endfacet
  facet normal 1 0 0
    outer loop
      vertex 2 13 14
      vertex 2 2 2
      vertex 2 36 2
    endloop
  endfacet
  facet normal 1 0 0
    outer loop
      vertex 2 2 2
      vertex 2 13 14
      vertex 2 2 27
    endloop
  endfacet
  facet normal -1 0 0
    outer loop
      vertex 74 2 2
      vertex 74 36 27
      vertex 74 36 2
    endloop
  endfacet
  facet normal -1 -0 0
    outer loop
      vertex 74 36 27
      vertex 74 2 2
      vertex 74 2 27
    endloop
  endfacet
  facet normal 0 -1 0
    outer loop
      vertex 2 36 2
      vertex 74 36 27
      vertex 2 36 27
    endloop
  endfacet
  facet normal 0 -1 -0
    outer loop
      vertex 74 36 27
      vertex 2 36 2
      vertex 74 36 2
    endloop
  endfacet
  facet normal -0 0 1
    outer loop
      vertex 2 36 2
      vertex 74 2 2
      vertex 74 36 2
    endloop
  endfacet
  facet normal 0 0 1
    outer loop
      vertex 74 2 2
      vertex 2 36 2
      vertex 2 2 2
    endloop
  endfacet
  facet normal 0 1 -0
    outer loop
      vertex 74 2 2
      vertex 2 2 27
      vertex 74 2 27
    endloop
  endfacet
  facet normal 0 1 0
    outer loop
      vertex 2 2 27
      vertex 74 2 2
      vertex 2 2 2
    endloop
  endfacet
  facet normal 0 0 -1
    outer loop
      vertex 0 13 22
      vertex 2 25 22
      vertex 2 13 22
    endloop
  endfacet
  facet normal -0 0 -1
    outer loop
      vertex 2 25 22
      vertex 0 13 22
      vertex 0 25 22
    endloop
  endfacet
  facet normal 0 -1 0
    outer loop
      vertex 0 25 14
      vertex 2 25 22
      vertex 0 25 22
    endloop
  endfacet
  facet normal 0 -1 -0
    outer loop
      vertex 2 25 22
      vertex 0 25 14
      vertex 2 25 14
    endloop
  endfacet
  facet normal -0 0 1
    outer loop
      vertex 0 25 14
      vertex 2 13 14
      vertex 2 25 14
    endloop
  endfacet
  facet normal 0 0 1
    outer loop
      vertex 2 13 14
      vertex 0 25 14
      vertex 0 13 14
    endloop
  endfacet
  facet normal 0 1 -0
    outer loop
      vertex 2 13 14
      vertex 0 13 22
      vertex 2 13 22
    endloop
  endfacet
  facet normal 0 1 0
    outer loop
      vertex 0 13 22
      vertex 2 13 14
      vertex 0 13 14
    endloop
  endfacet
  facet normal -1 0 0
    outer loop
      vertex 2.35 2.35 26.99
      vertex 2.35 35.65 32.99
      vertex 2.35 35.65 26.99
    endloop
  endfacet
  facet normal -1 -0 0
    outer loop
      vertex 2.35 35.65 32.99
      vertex 2.35 2.35 26.99
      vertex 2.35 2.35 32.99
    endloop
  endfacet
  facet normal 0 0 1
    outer loop
      vertex 73.65 35.65 32.99
      vertex 71.65 33.65 32.99
      vertex 73.65 2.35 32.99
    endloop
  endfacet
  facet normal 0 0 1
    outer loop
      vertex 73.65 35.65 32.99
      vertex 4.35 33.65 32.99
      vertex 71.65 33.65 32.99
    endloop
  endfacet
  facet normal 0 0 1
    outer loop
      vertex 4.35 33.65 32.99
      vertex 2.35 35.65 32.99
      vertex 4.35 4.35 32.99
    endloop
  endfacet
  facet normal -0 0 1
    outer loop
      vertex 2.35 35.65 32.99
      vertex 4.35 33.65 32.99
      vertex 73.65 35.65 32.99
    endloop
  endfacet
  facet normal -0 0 1
    outer loop
      vertex 71.65 4.35 32.99
      vertex 73.65 2.35 32.99
      vertex 71.65 33.65 32.99
    endloop
  endfacet
  facet normal -0 0 1
    outer loop
      vertex 4.35 4.35 32.99
      vertex 73.65 2.35 32.99
      vertex 71.65 4.35 32.99
    endloop
  endfacet
  facet normal 0 0 1
    outer loop
      vertex 4.35 4.35 32.99
      vertex 2.35 2.35 32.99
      vertex 73.65 2.35 32.99
    endloop
  endfacet
  facet normal 0 0 1
    outer loop
      vertex 2.35 2.35 32.99
      vertex 4.35 4.35 32.99
      vertex 2.35 35.65 32.99
    endloop
  endfacet
  facet normal 1 -0 0
    outer loop
      vertex 73.65 2.35 32.99
      vertex 73.65 35.65 26.99
      vertex 73.65 35.65 32.99
    endloop
  endfacet
  facet normal 1 0 0
    outer loop
      vertex 73.65 35.65 26.99
      vertex 73.65 2.35 32.99
      vertex 73.65 2.35 26.99
    endloop
  endfacet
  facet normal 0 0 -1
    outer loop
      vertex 73.65 2.35 26.99
      vertex 71.65 4.35 26.99
      vertex 73.65 35.65 26.99
    endloop
  endfacet
  facet normal 0 0 -1
    outer loop
      vertex 73.65 2.35 26.99
      vertex 4.35 4.35 26.99
      vertex 71.65 4.35 26.99
    endloop
  endfacet
  facet normal -0 0 -1
    outer loop
      vertex 4.35 4.35 26.99
      vertex 2.35 2.35 26.99
      vertex 4.35 33.65 26.99
    endloop
  endfacet
  facet normal 0 0 -1
    outer loop
      vertex 2.35 2.35 26.99
      vertex 4.35 4.35 26.99
      vertex 73.65 2.35 26.99
    endloop
  endfacet
  facet normal 0 0 -1
    outer loop
      vertex 71.65 33.65 26.99
      vertex 73.65 35.65 26.99
      vertex 71.65 4.35 26.99
    endloop
  endfacet
  facet normal 0 0 -1
    outer loop
      vertex 4.35 33.65 26.99
      vertex 73.65 35.65 26.99
      vertex 71.65 33.65 26.99
    endloop
  endfacet
  facet normal 0 0 -1
    outer loop
      vertex 4.35 33.65 26.99
      vertex 2.35 35.65 26.99
      vertex 73.65 35.65 26.99
    endloop
  endfacet
  facet normal 0 0 -1
    outer loop
      vertex 2.35 35.65 26.99
      vertex 4.35 33.65 26.99
      vertex 2.35 2.35 26.99
    endloop
  endfacet
  facet normal 0 -1 0
    outer loop
      vertex 2.35 2.35 26.99
      vertex 73.65 2.35 32.99
      vertex 2.35 2.35 32.99
    endloop
  endfacet
  facet normal 0 -1 -0
    outer loop
      vertex 73.65 2.35 32.99
      vertex 2.35 2.35 26.99
      vertex 73.65 2.35 26.99
    endloop
  endfacet
  facet normal 0 1 -0
    outer loop
      vertex 73.65 35.65 26.99
      vertex 2.35 35.65 32.99
      vertex 73.65 35.65 32.99
    endloop
  endfacet
  facet normal 0 1 0
    outer loop
      vertex 2.35 35.65 32.99
      vertex 73.65 35.65 26.99
      vertex 2.35 35.65 26.99
    endloop
  endfacet
  facet normal 1 -0 0
    outer loop
      vertex 4.35 4.35 32.99
      vertex 4.35 33.65 26.99
      vertex 4.35 33.65 32.99
    endloop
  endfacet
  facet normal 1 0 0
    outer loop
      vertex 4.35 33.65 26.99
      vertex 4.35 4.35 32.99
      vertex 4.35 4.35 26.99
    endloop
  endfacet
  facet normal -1 0 0
    outer loop
      vertex 71.65 4.35 26.99
      vertex 71.65 33.65 32.99
      vertex 71.65 33.65 26.99
    endloop
  endfacet
  facet normal -1 -0 0
    outer loop
      vertex 71.65 33.65 32.99
      vertex 71.65 4.35 26.99
      vertex 71.65 4.35 32.99
    endloop
  endfacet
  facet normal 0 -1 0
    outer loop
      vertex 4.35 33.65 26.99
      vertex 71.65 33.65 32.99
      vertex 4.35 33.65 32.99
    endloop
  endfacet
  facet normal 0 -1 -0
    outer loop
      vertex 71.65 33.65 32.99
      vertex 4.35 33.65 26.99
      vertex 71.65 33.65 26.99
    endloop
  endfacet
  facet normal 0 1 -0
    outer loop
      vertex 71.65 4.35 26.99
      vertex 4.35 4.35 32.99
      vertex 71.65 4.35 32.99
    endloop
  endfacet
  facet normal 0 1 0
    outer loop
      vertex 4.35 4.35 32.99
      vertex 71.65 4.35 26.99
      vertex 4.35 4.35 26.99
    endloop
  endfacet
endsolid OpenSCAD_Model
